<svg version="1.1" xmlns="http://www.w3.org/2000/svg" width="500" height="400"><defs><clipPath id="KONugKJAsLwX"><path fill="none" stroke="none" d="M 0.5 0.5 L 500.5 0.5 L 500.5 400.5 L 0.5 400.5 L 0.5 0.5 Z M 69.5 10.5 L 470.5 10.5 L 470.5 347.5 L 69.5 347.5 L 69.5 10.5 Z" clip-rule="evenodd"/></clipPath><clipPath id="QbbBypZXBeoZ"><path fill="none" stroke="none" d="M 69.5 10.5 L 470.5 10.5 L 470.5 347.5 L 69.5 347.5 L 69.5 10.5 Z"/></clipPath><clipPath id="WStGMRIcyEkN"><path fill="none" stroke="none" d="M 69.5 10.5 L 470.5 10.5 L 470.5 347.5 L 69.5 347.5 L 69.5 10.5 Z"/></clipPath><clipPath id="hoVqvmywBeTD"><path fill="none" stroke="none" d="M 69.5 10.5 L 470.5 10.5 L 470.5 347.5 L 69.5 347.5 L 69.5 10.5 Z"/></clipPath><clipPath id="tqwLDlaOCpUe"><path fill="none" stroke="none" d="M 69.5 10.5 L 470.5 10.5 L 470.5 347.5 L 69.5 347.5 L 69.5 10.5 Z"/></clipPath><clipPath id="dLuXapUDIFDs"><path fill="none" stroke="none" d="M 69.5 10.5 L 470.5 10.5 L 470.5 347.5 L 69.5 347.5 L 69.5 10.5 Z"/></clipPath><clipPath id="gZqltHFPIIhm"><path fill="none" stroke="none" d="M 69.5 10.5 L 470.5 10.5 L 470.5 347.5 L 69.5 347.5 L 69.5 10.5 Z"/></clipPath><clipPath id="AnUBAVyWfMbf"><path fill="none" stroke="none" d="M 69.5 10.5 L 470.5 10.5 L 470.5 347.5 L 69.5 347.5 L 69.5 10.5 Z"/></clipPath><clipPath id="JhVzLJZVivqL"><path fill="none" stroke="none" d="M 69.5 10.5 L 470.5 10.5 L 470.5 347.5 L 69.5 347.5 L 69.5 10.5 Z"/></clipPath></defs><path fill="rgb(255,255,255)" stroke="none" paint-order="stroke" d="M 0.5 0.5 L 500.5 0.5 L 500.5 400.5 L 0.5 400.5 L 0.5 0.5 Z" fill-opacity="1" clip-path="url(#KONugKJAsLwX)"/><path fill="rgb(255,255,255)" stroke="none" paint-order="stroke" d="M 69.5 10.5 L 470.5 10.5 L 470.5 347.5 L 69.5 347.5 L 69.5 10.5 Z" fill-opacity="1"/><path fill="none" stroke="rgb(229,229,229)" paint-order="fill" d="M 69.5 10.5 L 470.5 10.5 L 470.5 347.5 L 69.5 347.5 L 69.5 10.5 Z" stroke-opacity="1" stroke-linejoin="bevel" stroke-miterlimit="10"/><path fill="none" stroke="rgb(169,169,169)" paint-order="fill" d="M 69.5 347.41607666015625 L 69.88130187988281 345.8797302246094 L 70.63790130615234 342.7256164550781 L 71.3909683227539 339.56304931640625 L 72.1458969116211 336.3864440917969 L 72.90151977539062 333.21209716796875 L 73.65766906738281 330.0518493652344 L 74.41349029541016 326.9206848144531 L 75.16967010498047 323.8272399902344 L 75.92533111572266 320.7861328125 L 76.6812744140625 317.80377197265625 L 77.43701171875 314.8896484375 L 78.19281005859375 312.04803466796875 L 78.94879913330078 309.2742919921875 L 79.70460510253906 306.5442810058594 L 80.46041107177734 303.86553955078125 L 81.21651458740234 301.2479248046875 L 81.97237396240234 298.7038879394531 L 82.728271484375 296.2388610839844 L 83.4841537475586 293.8219909667969 L 84.2398910522461 291.4454345703125 L 84.995849609375 289.1168518066406 L 85.75177001953125 286.84295654296875 L 86.50762176513672 284.6219787597656 L 87.26354217529297 282.4413757324219 L 88.01937103271484 280.2981262207031 L 88.77527618408203 278.1923522949219 L 89.5311279296875 276.1246032714844 L 90.28710174560547 274.0898132324219 L 91.04298400878906 272.0819396972656 L 91.7988510131836 270.0992736816406 L 92.55473327636719 268.1433410644531 L 93.31059265136719 266.21441650390625 L 94.06644439697266 264.30706787109375 L 94.82231903076172 262.4167785644531 L 95.57823944091797 260.5442199707031 L 96.3341293334961 258.6944885253906 L 97.09000396728516 256.8656921386719 L 97.8459701538086 255.05567932128906 L 98.60176849365234 253.26486206054688 L 99.3576889038086 251.4930419921875 L 100.11355590820312 249.74224853515625 L 100.86943817138672 248.0100860595703 L 101.62537384033203 246.29591369628906 L 102.38126373291016 244.60020446777344 L 103.13717651367188 242.9220733642578 L 103.89308166503906 241.262451171875 L 104.64893341064453 239.6201629638672 L 105.4048080444336 237.9947052001953 L 106.16072845458984 236.3851318359375 L 106.91658782958984 234.79238891601562 L 107.67247772216797 233.21600341796875 L 108.42841339111328 231.6546630859375 L 109.18428802490234 230.10842895507812 L 109.9401626586914 228.577392578125 L 110.69608306884766 227.06118774414062 L 111.45196533203125 225.55914306640625 L 112.20783996582031 224.07144165039062 L 112.9637222290039 222.59800720214844 L 113.7196044921875 221.13832092285156 L 114.4754867553711 219.69140625 L 115.23139190673828 218.25848388671875 L 115.98728942871094 216.83888244628906 L 116.74315643310547 215.43157958984375 L 117.49907684326172 214.03675842285156 L 118.25491333007812 212.65550231933594 L 119.01081085205078 211.28631591796875 L 119.76673126220703 209.92901611328125 L 120.52259826660156 208.5838623046875 L 121.27851104736328 207.2512664794922 L 122.034423828125 205.9307098388672 L 122.790283203125 204.62088012695312 L 123.54615020751953 203.32308959960938 L 124.30204772949219 202.0372314453125 L 125.05796813964844 200.7622833251953 L 125.81385803222656 199.4980926513672 L 126.56973266601562 198.24501037597656 L 127.32563018798828 197.00381469726562 L 128.08151245117188 195.77272033691406 L 128.83741760253906 194.5516357421875 L 129.59329223632812 193.34146118164062 L 130.34921264648438 192.14198303222656 L 131.1051025390625 190.95249938964844 L 131.8609619140625 189.77236938476562 L 132.61683654785156 188.60302734375 L 133.3727569580078 187.4436492919922 L 134.12863159179688 186.2938232421875 L 134.8845672607422 185.1526641845703 L 135.64044189453125 184.02200317382812 L 136.39634704589844 182.90060424804688 L 137.15220642089844 181.78851318359375 L 137.90811157226562 180.68487548828125 L 138.6640167236328 179.59152221679688 L 139.4198455810547 178.50732421875 L 140.17576599121094 177.43173217773438 L 140.9316864013672 176.3640594482422 L 141.6875 175.30641174316406 L 142.44342041015625 174.25717163085938 L 143.1992950439453 173.2163848876953 L 143.95518493652344 172.18309020996094 L 144.7111358642578 171.15936279296875 L 145.4669647216797 170.1439666748047 L 146.222900390625 169.13668823242188 L 146.9788055419922 168.13665771484375 L 147.73468017578125 167.14537048339844 L 148.49057006835938 166.16246032714844 L 149.2464599609375 165.1871337890625 L 150.00233459472656 164.2190704345703 L 150.7582550048828 163.25860595703125 L 151.51412963867188 162.30697631835938 L 152.27000427246094 161.36227416992188 L 153.02586364746094 160.4249267578125 L 153.78175354003906 159.49432373046875 L 154.53770446777344 158.5722198486328 L 155.29359436035156 157.65740966796875 L 156.04942321777344 156.74923706054688 L 156.80538940429688 155.8477783203125 L 157.56121826171875 154.95388793945312 L 158.31710815429688 154.06785583496094 L 159.07302856445312 153.1878204345703 L 159.82891845703125 152.3142852783203 L 160.5847625732422 151.4479217529297 L 161.34072875976562 150.58868408203125 L 162.0965576171875 149.7365264892578 L 162.8524932861328 148.88970947265625 L 163.6083526611328 148.0494384765625 L 164.36427307128906 147.21649169921875 L 165.1201629638672 146.39028930664062 L 165.8760528564453 145.5701904296875 L 166.63194274902344 144.75526428222656 L 167.38783264160156 143.94735717773438 L 168.1436767578125 143.1468048095703 L 168.89959716796875 142.3517608642578 L 169.65550231933594 141.56263732910156 L 170.41139221191406 140.77882385253906 L 171.16725158691406 140.00149536132812 L 171.92318725585938 139.23101806640625 L 172.67901611328125 138.46571350097656 L 173.4349365234375 137.70565795898438 L 174.19081115722656 136.9512939453125 L 174.94668579101562 136.2030487060547 L 175.70257568359375 135.46128845214844 L 176.45851135253906 134.7246551513672 L 177.2144012451172 133.99270629882812 L 177.97030639648438 133.26673889160156 L 178.7261199951172 132.54721069335938 L 179.48204040527344 131.8332977294922 L 180.23794555664062 131.12452697753906 L 180.99386596679688 130.42027282714844 L 181.7497100830078 129.72134399414062 L 182.5056610107422 129.0287628173828 L 183.2615203857422 128.34172821044922 L 184.01739501953125 127.65906524658203 L 184.77328491210938 126.98139953613281 L 185.52915954589844 126.30846405029297 L 186.28506469726562 125.6412353515625 L 187.04095458984375 124.97991180419922 L 187.79689025878906 124.32281494140625 L 188.55276489257812 123.66986083984375 L 189.30860900878906 123.0220718383789 L 190.0644989013672 122.37958526611328 L 190.82040405273438 121.74230194091797 L 191.57627868652344 121.11000061035156 L 192.3321990966797 120.48161315917969 L 193.0880889892578 119.85737609863281 L 193.84393310546875 119.23861694335938 L 194.5998077392578 118.62517547607422 L 195.3557891845703 118.01591491699219 L 196.1116485595703 117.4110107421875 L 196.86753845214844 116.81040954589844 L 197.6234130859375 116.21390533447266 L 198.3792724609375 115.62248992919922 L 199.13519287109375 115.03620910644531 L 199.89105224609375 114.453857421875 L 200.64698791503906 113.86921691894531 L 201.4029083251953 113.29461669921875 L 202.15872192382812 112.726318359375 L 202.91461181640625 112.16166687011719 L 203.67054748535156 111.60120391845703 L 204.42645263671875 111.044921875 L 205.1822967529297 110.49227142333984 L 205.93820190429688 109.94366455078125 L 206.69407653808594 109.39974975585938 L 207.44996643066406 108.86005401611328 L 208.2058563232422 108.32414245605469 L 208.96180725097656 107.79231262207031 L 209.71763610839844 107.26451110839844 L 210.47354125976562 106.74031066894531 L 211.22946166992188 106.22016906738281 L 211.98538208007812 105.7047348022461 L 212.7412567138672 105.19327545166016 L 213.4971160888672 104.68511199951172 L 214.2530059814453 104.18080139160156 L 215.0088653564453 103.68048858642578 L 215.7648162841797 103.18394470214844 L 216.52069091796875 102.6915283203125 L 217.27655029296875 102.20323944091797 L 218.03245544433594 101.71849060058594 L 218.7883758544922 101.23702239990234 L 219.5442657470703 100.75898742675781 L 220.30014038085938 100.28489685058594 L 221.0560302734375 99.81504821777344 L 221.81195068359375 99.3489761352539 L 222.56776428222656 98.88612365722656 L 223.3236846923828 98.42654418945312 L 224.0796356201172 97.97038269042969 L 224.8354949951172 97.51777648925781 L 225.59136962890625 97.06880950927734 L 226.3472137451172 96.62373352050781 L 227.1031951904297 96.18214416503906 L 227.85902404785156 95.7435531616211 L 228.61488342285156 95.30778503417969 L 229.37083435058594 94.86923217773438 L 230.126708984375 94.43771362304688 L 230.882568359375 94.01190948486328 L 231.6384735107422 93.58998107910156 L 232.39431762695312 93.17138671875 L 233.15020751953125 92.75570678710938 L 233.90618896484375 92.34272003173828 L 234.66209411621094 91.93269348144531 L 235.4178924560547 91.52644348144531 L 236.17381286621094 91.12390899658203 L 236.92970275878906 90.7245864868164 L 237.68560791015625 90.32807159423828 L 238.44151306152344 89.93463134765625 L 239.1974334716797 89.54425811767578 L 239.95327758789062 89.15708923339844 L 240.70913696289062 88.7728500366211 L 241.4650421142578 88.39195251464844 L 242.22097778320312 88.0145034790039 L 242.976806640625 87.6401138305664 L 243.73272705078125 87.26821899414062 L 244.4885711669922 86.89884948730469 L 245.24447631835938 86.53265380859375 L 246.00038146972656 86.16969299316406 L 246.7563018798828 85.81002807617188 L 247.51217651367188 85.45333099365234 L 248.2680206298828 85.09934997558594 L 249.02395629882812 84.74811553955078 L 249.77981567382812 84.39958190917969 L 250.5357666015625 84.0535659790039 L 251.2916259765625 83.71017456054688 L 252.04757690429688 83.3697738647461 L 252.80335998535156 83.03282928466797 L 253.55934143066406 82.69873046875 L 254.31515502929688 82.36701202392578 L 255.071044921875 82.03751373291016 L 255.82699584960938 81.7107162475586 L 256.5828552246094 81.38697814941406 L 257.3387145996094 81.06622314453125 L 258.09466552734375 80.74824523925781 L 258.8506164550781 80.43323516845703 L 259.60638427734375 80.1211166381836 L 260.3623046875 79.81138610839844 L 261.1182556152344 79.50379943847656 L 261.87408447265625 79.19860076904297 L 262.6300048828125 78.89634704589844 L 263.3858947753906 78.59735107421875 L 264.14178466796875 78.30118560791016 L 264.8976135253906 78.007568359375 L 265.653564453125 77.71626281738281 L 266.4094543457031 77.4272232055664 L 267.1654052734375 77.14059448242188 L 267.9211730957031 76.85659790039062 L 268.6770935058594 76.57532501220703 L 269.43304443359375 76.29656219482422 L 270.1889343261719 76.02051544189453 L 270.9448547363281 75.7470474243164 L 271.7007141113281 75.47589111328125 L 272.45654296875 75.2069320678711 L 273.2124938964844 74.93997955322266 L 273.9683532714844 74.6754379272461 L 274.7242431640625 74.41353607177734 L 275.4801025390625 74.1532211303711 L 276.23602294921875 73.88013458251953 L 276.9918518066406 73.61677551269531 L 277.74774169921875 73.36166381835938 L 278.5036315917969 73.11148071289062 L 279.2596435546875 72.86467742919922 L 280.0155334472656 72.6202163696289 L 280.77142333984375 72.3774642944336 L 281.5273132324219 72.1363525390625 L 282.2831115722656 71.89729309082031 L 283.03900146484375 71.66058349609375 L 283.794921875 71.42622375488281 L 284.5508117675781 71.19409942626953 L 285.30670166015625 70.9640884399414 L 286.0626525878906 70.736083984375 L 286.8184509277344 70.51032257080078 L 287.5744323730469 70.2867660522461 L 288.3302001953125 70.06548309326172 L 289.086181640625 69.8463134765625 L 289.842041015625 69.62932586669922 L 290.59796142578125 69.41452026367188 L 291.3538513183594 69.20196533203125 L 292.1097412109375 68.99154663085938 L 292.8656005859375 68.78308868408203 L 293.6215515136719 68.57659149169922 L 294.37738037109375 68.3720703125 L 295.13323974609375 68.1696548461914 L 295.88922119140625 67.96945190429688 L 296.6451110839844 67.77136993408203 L 297.4009704589844 67.57540130615234 L 298.1568298339844 67.38139343261719 L 298.9127197265625 67.1892318725586 L 299.668701171875 66.99900817871094 L 300.4244689941406 66.81080627441406 L 301.1803894042969 66.62452697753906 L 301.9362487792969 66.44026947021484 L 302.69219970703125 66.25807189941406 L 303.44805908203125 66.07789611816406 L 304.2039489746094 65.89973449707031 L 304.9598388671875 65.72354888916016 L 305.7156677246094 65.54924774169922 L 306.4715881347656 65.376708984375 L 307.2275390625 65.2059326171875 L 307.9834899902344 65.03703308105469 L 308.7392272949219 64.8700942993164 L 309.4952087402344 64.70528411865234 L 310.2511291503906 64.54263305664062 L 311.0069274902344 64.38204574584961 L 311.7627868652344 64.22322082519531 L 312.51873779296875 64.06608963012695 L 313.2746276855469 63.91073989868164 L 314.030517578125 63.75695037841797 L 314.78643798828125 63.604801177978516 L 315.54229736328125 63.45435333251953 L 316.29827880859375 63.305843353271484 L 317.05401611328125 63.15969467163086 L 317.8100280761719 63.015560150146484 L 318.5659484863281 62.87340545654297 L 319.3217468261719 62.733150482177734 L 320.0776672363281 62.594505310058594 L 320.8336181640625 62.45723342895508 L 321.5894470214844 62.3211669921875 L 322.3453369140625 62.186214447021484 L 323.10125732421875 62.05292892456055 L 323.8571472167969 61.9217643737793 L 324.6129455566406 61.79302978515625 L 325.36883544921875 61.6667594909668 L 326.1247863769531 61.5426025390625 L 326.880615234375 61.41999435424805 L 327.63665771484375 61.298770904541016 L 328.3924255371094 61.178871154785156 L 329.1483459472656 61.06011199951172 L 329.90423583984375 60.94266891479492 L 330.6600646972656 60.82671356201172 L 331.4160461425781 60.71232986450195 L 332.1719970703125 60.59999084472656 L 332.9278564453125 60.49011993408203 L 333.68377685546875 60.38256072998047 L 334.4395446777344 60.27690505981445 L 335.1955261230469 60.17271423339844 L 335.9512939453125 60.06964874267578 L 336.70721435546875 59.96739196777344 L 337.46307373046875 59.8660888671875 L 338.21905517578125 59.76605987548828 L 338.9749755859375 59.667579650878906 L 339.7307434082031 59.571170806884766 L 340.48663330078125 59.47722244262695 L 341.24261474609375 59.38555145263672 L 341.99853515625 59.295658111572266 L 342.75445556640625 59.20724105834961 L 343.51031494140625 59.1201057434082 L 344.2662048339844 59.03416442871094 L 345.0220947265625 58.94929122924805 L 345.7779235839844 58.865577697753906 L 346.5338439941406 58.783016204833984 L 347.2897033691406 58.70169448852539 L 348.0456848144531 58.62198257446289 L 348.8015441894531 58.544532775878906 L 349.55731201171875 58.469600677490234 L 350.3132019042969 58.39678955078125 L 351.0691833496094 58.32556915283203 L 351.8249816894531 58.255577087402344 L 352.5810546875 58.1865119934082 L 353.3368225097656 58.118167877197266 L 354.09283447265625 58.05061721801758 L 354.8486022949219 57.98423385620117 L 355.60443115234375 57.91929626464844 L 356.36029052734375 57.85618209838867 L 357.11627197265625 57.79509353637695 L 357.8722839355469 57.73605728149414 L 358.6280517578125 57.67897415161133 L 359.38397216796875 57.623619079589844 L 360.1399230957031 57.5697021484375 L 360.8957824707031 57.51708984375 L 361.65155029296875 57.465606689453125 L 362.4074401855469 57.41498947143555 L 363.16339111328125 57.365047454833984 L 363.9194030761719 57.31581497192383 L 364.67523193359375 57.267601013183594 L 365.4310302734375 57.22093200683594 L 366.18695068359375 57.17620849609375 L 366.9429626464844 57.133583068847656 L 367.6988220214844 57.09309768676758 L 368.4547119140625 57.054542541503906 L 369.2105712890625 57.0174674987793 L 369.9664611816406 56.981231689453125 L 370.7223205566406 56.945560455322266 L 371.4781188964844 56.9105110168457 L 372.2340393066406 56.87625503540039 L 372.98992919921875 56.84303665161133 L 373.7459716796875 56.81108093261719 L 374.5016784667969 56.78059005737305 L 375.2577819824219 56.75173568725586 L 376.0136413574219 56.72477722167969 L 376.7694396972656 56.699710845947266 L 377.5252990722656 56.67634582519531 L 378.28125 56.65443420410156 L 379.03717041015625 56.63383865356445 L 379.79296875 56.614410400390625 L 380.5489196777344 56.5958251953125 L 381.3048095703125 56.577762603759766 L 382.0605773925781 56.560245513916016 L 382.8164978027344 56.543495178222656 L 383.5724792480469 56.52779769897461 L 384.32843017578125 56.513545989990234 L 385.0843200683594 56.50104522705078 L 385.8402099609375 56.49049758911133 L 386.5960998535156 56.48188400268555 L 387.351806640625 56.47504806518555 L 388.10791015625 56.46970748901367 L 388.8638000488281 56.465492248535156 L 389.61968994140625 56.462039947509766 L 390.37554931640625 56.459144592285156 L 391.1314697265625 56.456817626953125 L 391.88726806640625 56.455326080322266 L 392.64306640625 56.454833984375 L 393.3990173339844 56.45543670654297 L 394.15496826171875 56.457271575927734 L 394.9109191894531 56.46053695678711 L 395.6667785644531 56.46541976928711 L 396.4226379394531 56.472042083740234 L 397.1784362792969 56.480377197265625 L 397.9344177246094 56.490211486816406 L 398.69036865234375 56.501312255859375 L 399.4461669921875 56.51350784301758 L 400.2020568847656 56.526580810546875 L 400.9579772949219 56.540313720703125 L 401.71392822265625 56.55451202392578 L 402.4696350097656 56.569183349609375 L 403.2257080078125 56.584590911865234 L 403.9815979003906 56.60107421875 L 404.73748779296875 56.6190071105957 L 405.4931640625 56.63859939575195 L 406.24908447265625 56.65989685058594 L 407.005126953125 56.68285369873047 L 407.76104736328125 56.70734786987305 L 408.516845703125 56.73318862915039 L 409.272705078125 56.760162353515625 L 410.0287170410156 56.78809356689453 L 410.78448486328125 56.81679916381836 L 411.5404052734375 56.84619903564453 L 412.2962951660156 56.87628936767578 L 413.05224609375 56.907108306884766 L 413.80804443359375 56.93869400024414 L 414.5640869140625 56.97111129760742 L 415.31988525390625 57.0045166015625 L 416.07586669921875 57.03915786743164 L 416.83160400390625 57.075233459472656 L 417.5876159667969 57.11289596557617 L 418.34332275390625 57.152164459228516 L 419.0992431640625 57.192996978759766 L 419.855224609375 57.23522186279297 L 420.6111755371094 57.27857971191406 L 421.3669738769531 57.322757720947266 L 422.12286376953125 57.3675422668457 L 422.87884521484375 57.41277313232422 L 423.63470458984375 57.458370208740234 L 424.390625 57.50450134277344 L 425.146484375 57.55140686035156 L 425.90234375 57.599273681640625 L 426.6583557128906 57.648292541503906 L 427.4141540527344 57.698646545410156 L 428.17010498046875 57.750511169433594 L 428.9259338378906 57.8039436340332 L 429.6817626953125 57.858882904052734 L 430.4376525878906 57.91520690917969 L 431.193603515625 57.97271728515625 L 431.9494323730469 58.03119659423828 L 432.7052307128906 58.09046936035156 L 433.4612121582031 58.150455474853516 L 434.2172546386719 58.211090087890625 L 434.97308349609375 58.27228927612305 L 435.72894287109375 58.334022521972656 L 436.48480224609375 58.39626693725586 L 437.24078369140625 58.459190368652344 L 437.9966735839844 58.522979736328125 L 438.75238037109375 58.587921142578125 L 439.5084228515625 58.65431213378906 L 440.26434326171875 58.72224807739258 L 441.0201110839844 58.79176712036133 L 441.776123046875 58.86280822753906 L 442.53192138671875 58.93512725830078 L 443.2878112792969 59.00843811035156 L 444.0436096191406 59.08245086669922 L 444.79962158203125 59.15701675415039 L 445.5553894042969 59.231937408447266 L 446.31134033203125 59.307186126708984 L 447.0673522949219 59.38284683227539 L 447.82330322265625 59.459129333496094 L 448.57904052734375 59.536251068115234 L 449.3348083496094 59.61439895629883 L 450.0909729003906 59.69374084472656" stroke-opacity="1" stroke-linejoin="bevel" stroke-miterlimit="10" stroke-width="4" stroke-dasharray="6" clip-path="url(#hoVqvmywBeTD)"/><path fill="none" stroke="rgb(169,169,169)" paint-order="fill" d="M 69.5 347.5 L 69.88130187988281 323.0492248535156 L 70.63790130615234 309.6358947753906 L 71.3909683227539 301.1062927246094 L 72.1458969116211 294.4342041015625 L 72.90151977539062 288.8248291015625 L 73.65766906738281 283.9192810058594 L 74.41349029541016 279.5262145996094 L 75.16967010498047 275.5205383300781 L 75.92533111572266 271.8265075683594 L 76.6812744140625 268.3836669921875 L 77.43701171875 265.1529235839844 L 78.19281005859375 262.1016540527344 L 78.94879913330078 259.20501708984375 L 79.70460510253906 256.4449768066406 L 80.46041107177734 253.80503845214844 L 81.21651458740234 251.27125549316406 L 81.97237396240234 248.8345489501953 L 82.728271484375 246.48480224609375 L 83.4841537475586 244.21435546875 L 84.2398910522461 242.01683044433594 L 84.995849609375 239.88531494140625 L 85.75177001953125 237.8153839111328 L 86.50762176513672 235.8026580810547 L 87.26354217529297 233.8427276611328 L 88.01937103271484 231.93243408203125 L 88.77527618408203 230.06822204589844 L 89.5311279296875 228.24746704101562 L 90.28710174560547 226.46722412109375 L 91.04298400878906 224.72561645507812 L 91.7988510131836 223.02032470703125 L 92.55473327636719 221.349365234375 L 93.31059265136719 219.71099853515625 L 94.06644439697266 218.10354614257812 L 94.82231903076172 216.52548217773438 L 95.57823944091797 214.97532653808594 L 96.3341293334961 213.45196533203125 L 97.09000396728516 211.9541778564453 L 97.8459701538086 210.4806365966797 L 98.60176849365234 209.03079223632812 L 99.3576889038086 207.60316467285156 L 100.11355590820312 206.1971435546875 L 100.86943817138672 204.811767578125 L 101.62537384033203 203.44619750976562 L 102.38126373291016 202.099853515625 L 103.13717651367188 200.77191162109375 L 103.89308166503906 199.46177673339844 L 104.64893341064453 198.1688995361328 L 105.4048080444336 196.89254760742188 L 106.16072845458984 195.63214111328125 L 106.91658782958984 194.38734436035156 L 107.67247772216797 193.15748596191406 L 108.42841339111328 191.9420928955078 L 109.18428802490234 190.74085998535156 L 109.9401626586914 189.5532989501953 L 110.69608306884766 188.37889099121094 L 111.45196533203125 187.2174072265625 L 112.20783996582031 186.0684356689453 L 112.9637222290039 184.93157958984375 L 113.7196044921875 183.80653381347656 L 114.4754867553711 182.69296264648438 L 115.23139190673828 181.5905303955078 L 115.98728942871094 180.4989776611328 L 116.74315643310547 179.41807556152344 L 117.49907684326172 178.34744262695312 L 118.25491333007812 177.28697204589844 L 119.01081085205078 176.2362518310547 L 119.76673126220703 175.19508361816406 L 120.52259826660156 174.163330078125 L 121.27851104736328 173.14065551757812 L 122.034423828125 172.12689208984375 L 122.790283203125 171.1219024658203 L 123.54615020751953 170.1254425048828 L 124.30204772949219 169.13726806640625 L 125.05796813964844 168.15719604492188 L 125.81385803222656 167.1851348876953 L 126.56973266601562 166.22088623046875 L 127.32563018798828 165.26425170898438 L 128.08151245117188 164.3151092529297 L 128.83741760253906 163.3732452392578 L 129.59329223632812 162.4385986328125 L 130.34921264648438 161.5109405517578 L 131.1051025390625 160.59017944335938 L 131.8609619140625 159.67623901367188 L 132.61683654785156 158.76889038085938 L 133.3727569580078 157.86798095703125 L 134.12863159179688 156.97349548339844 L 134.8845672607422 156.085205078125 L 135.64044189453125 155.20310974121094 L 136.39634704589844 154.3270263671875 L 137.15220642089844 153.45689392089844 L 137.90811157226562 152.59254455566406 L 138.6640167236328 151.73390197753906 L 139.4198455810547 150.8809356689453 L 140.17576599121094 150.0334014892578 L 140.9316864013672 149.19129943847656 L 141.6875 148.3546142578125 L 142.44342041015625 147.52308654785156 L 143.1992950439453 146.69674682617188 L 143.95518493652344 145.87545776367188 L 144.7111358642578 145.05909729003906 L 145.4669647216797 144.2477569580078 L 146.222900390625 143.441162109375 L 146.9788055419922 142.6393280029297 L 147.73468017578125 141.84222412109375 L 148.49057006835938 141.04969787597656 L 149.2464599609375 140.26170349121094 L 150.00233459472656 139.47821044921875 L 150.7582550048828 138.69908142089844 L 151.51412963867188 137.92431640625 L 152.27000427246094 137.15382385253906 L 153.02586364746094 136.38755798339844 L 153.78175354003906 135.6254119873047 L 154.53770446777344 134.8673095703125 L 155.29359436035156 134.11329650878906 L 156.04942321777344 133.36331176757812 L 156.80538940429688 132.6171112060547 L 157.56121826171875 131.87490844726562 L 158.31710815429688 131.136474609375 L 159.07302856445312 130.40174865722656 L 159.82891845703125 129.67076110839844 L 160.5847625732422 128.94351196289062 L 161.34072875976562 128.21973419189453 L 162.0965576171875 127.49964904785156 L 162.8524932861328 126.78298950195312 L 163.6083526611328 126.06988525390625 L 164.36427307128906 125.36013793945312 L 165.1201629638672 124.65380859375 L 165.8760528564453 123.9508285522461 L 166.63194274902344 123.25112915039062 L 167.38783264160156 122.55470275878906 L 168.1436767578125 121.8615493774414 L 168.89959716796875 121.17149353027344 L 169.65550231933594 120.48458099365234 L 170.41139221191406 119.8008041381836 L 171.16725158691406 119.12010955810547 L 171.92318725585938 118.44239044189453 L 172.67901611328125 117.76775360107422 L 173.4349365234375 117.09598541259766 L 174.19081115722656 116.42719268798828 L 174.94668579101562 115.76128387451172 L 175.70257568359375 115.09822082519531 L 176.45851135253906 114.43795013427734 L 177.2144012451172 113.780517578125 L 177.97030639648438 113.12582397460938 L 178.7261199951172 112.47393035888672 L 179.48204040527344 111.82466888427734 L 180.23794555664062 111.17808532714844 L 180.99386596679688 110.53411865234375 L 181.7497100830078 109.89285278320312 L 182.5056610107422 109.25406646728516 L 183.2615203857422 108.61791229248047 L 184.01739501953125 107.98429107666016 L 184.77328491210938 107.35315704345703 L 185.52915954589844 106.7245101928711 L 186.28506469726562 106.0982894897461 L 187.04095458984375 105.4745101928711 L 187.79689025878906 104.85309600830078 L 188.55276489257812 104.2341079711914 L 189.30860900878906 103.61750030517578 L 190.0644989013672 103.00318908691406 L 190.82040405273438 102.39116668701172 L 191.57627868652344 101.78146362304688 L 192.3321990966797 101.17396545410156 L 193.0880889892578 100.56873321533203 L 193.84393310546875 99.96577453613281 L 194.5998077392578 99.36495971679688 L 195.3557891845703 98.76626586914062 L 196.1116485595703 98.1697998046875 L 196.86753845214844 97.57544708251953 L 197.6234130859375 96.98321533203125 L 198.3792724609375 96.3930892944336 L 199.13519287109375 95.80500030517578 L 199.89105224609375 95.21900177001953 L 200.64698791503906 94.63497924804688 L 201.4029083251953 94.05299377441406 L 202.15872192382812 93.47307586669922 L 202.91461181640625 92.89508056640625 L 203.67054748535156 92.31902313232422 L 204.42645263671875 91.74492645263672 L 205.1822967529297 91.17279815673828 L 205.93820190429688 90.6025390625 L 206.69407653808594 90.03419494628906 L 207.44996643066406 89.46770477294922 L 208.2058563232422 88.90308380126953 L 208.96180725097656 88.34026336669922 L 209.71763610839844 87.77935791015625 L 210.47354125976562 87.22019958496094 L 211.22946166992188 86.66283416748047 L 211.98538208007812 86.10724639892578 L 212.7412567138672 85.55345916748047 L 213.4971160888672 85.00142669677734 L 214.2530059814453 84.45111846923828 L 215.0088653564453 83.90254974365234 L 215.7648162841797 83.35562133789062 L 216.52069091796875 82.81044006347656 L 217.27655029296875 82.26695251464844 L 218.03245544433594 81.72510528564453 L 218.7883758544922 81.18488311767578 L 219.5442657470703 80.64632415771484 L 220.30014038085938 80.10941314697266 L 221.0560302734375 79.57408905029297 L 221.81195068359375 79.04035186767578 L 222.56776428222656 78.50827026367188 L 223.3236846923828 77.97769927978516 L 224.0796356201172 77.44866180419922 L 224.8354949951172 76.9212417602539 L 225.59136962890625 76.39534759521484 L 226.3472137451172 75.8709945678711 L 227.1031951904297 75.34806060791016 L 227.85902404785156 74.82673645019531 L 228.61488342285156 74.306884765625 L 229.37083435058594 73.78844451904297 L 230.126708984375 73.27153778076172 L 230.882568359375 72.75609588623047 L 231.6384735107422 72.24205780029297 L 232.39431762695312 71.72949981689453 L 233.15020751953125 71.21833801269531 L 233.90618896484375 70.70853424072266 L 234.66209411621094 70.20018005371094 L 235.4178924560547 69.69330596923828 L 236.17381286621094 69.1877212524414 L 236.92970275878906 68.68352508544922 L 237.68560791015625 68.18069458007812 L 238.44151306152344 67.67921447753906 L 239.1974334716797 67.17906188964844 L 239.95327758789062 66.6802978515625 L 240.70913696289062 66.18285369873047 L 241.4650421142578 65.68669128417969 L 242.22097778320312 65.19181823730469 L 242.976806640625 64.69831085205078 L 243.73272705078125 64.2060432434082 L 244.4885711669922 63.715087890625 L 245.24447631835938 63.225372314453125 L 246.00038146972656 62.73691940307617 L 246.7563018798828 62.24970626831055 L 247.51217651367188 61.76377487182617 L 248.2680206298828 61.279090881347656 L 249.02395629882812 60.79557800292969 L 249.77981567382812 60.3133430480957 L 250.5357666015625 59.83224868774414 L 251.2916259765625 59.35242462158203 L 252.04757690429688 58.87372970581055 L 252.80335998535156 58.39633560180664 L 253.55934143066406 57.91999816894531 L 254.31515502929688 57.4449348449707 L 255.071044921875 56.970985412597656 L 255.82699584960938 56.49816131591797 L 256.5828552246094 56.02653503417969 L 257.3387145996094 55.556060791015625 L 258.09466552734375 55.08666229248047 L 258.8506164550781 54.61839294433594 L 259.60638427734375 54.15133285522461 L 260.3623046875 53.685325622558594 L 261.1182556152344 53.22039031982422 L 261.87408447265625 52.756622314453125 L 262.6300048828125 52.29390335083008 L 263.3858947753906 51.83228302001953 L 264.14178466796875 51.371734619140625 L 264.8976135253906 50.91230392456055 L 265.653564453125 50.4538688659668 L 266.4094543457031 49.99652099609375 L 267.1654052734375 49.54019546508789 L 267.9211730957031 49.085018157958984 L 268.6770935058594 48.63078689575195 L 269.43304443359375 48.177574157714844 L 270.1889343261719 47.72542190551758 L 270.9448547363281 47.27428436279297 L 271.7007141113281 46.82418441772461 L 272.45654296875 46.375118255615234 L 273.2124938964844 45.92698287963867 L 273.9683532714844 45.479881286621094 L 274.7242431640625 45.033775329589844 L 275.4801025390625 44.588653564453125 L 276.23602294921875 44.14449691772461 L 276.9918518066406 43.70134353637695 L 277.74774169921875 43.259132385253906 L 278.5036315917969 42.81787872314453 L 279.2596435546875 42.37752914428711 L 280.0155334472656 41.93818664550781 L 280.77142333984375 41.499794006347656 L 281.5273132324219 41.06233596801758 L 282.2831115722656 40.625858306884766 L 283.03900146484375 40.19026565551758 L 283.794921875 39.755592346191406 L 284.5508117675781 39.321842193603516 L 285.30670166015625 38.88901138305664 L 286.0626525878906 38.45703887939453 L 286.8184509277344 38.02608108520508 L 287.5744323730469 37.59590148925781 L 288.3302001953125 37.1667366027832 L 289.086181640625 36.738338470458984 L 289.842041015625 36.31090545654297 L 290.59796142578125 35.884315490722656 L 291.3538513183594 35.45859909057617 L 292.1097412109375 35.03377151489258 L 292.8656005859375 34.60980987548828 L 293.6215515136719 34.18666458129883 L 294.37738037109375 33.76444625854492 L 295.13323974609375 33.34305953979492 L 295.88922119140625 32.922454833984375 L 296.6451110839844 32.50273895263672 L 297.4009704589844 32.083866119384766 L 298.1568298339844 31.66584014892578 L 298.9127197265625 31.248619079589844 L 299.668701171875 30.832185745239258 L 300.4244689941406 30.41667366027832 L 301.1803894042969 30.001895904541016 L 301.9362487792969 29.58795928955078 L 302.69219970703125 29.17479705810547 L 303.44805908203125 28.762468338012695 L 304.2039489746094 28.350933074951172 L 304.9598388671875 27.9401798248291 L 305.7156677246094 27.53026008605957 L 306.4715881347656 27.121084213256836 L 307.2275390625 26.7126522064209 L 307.9834899902344 26.305025100708008 L 308.7392272949219 25.898265838623047 L 309.4952087402344 25.492158889770508 L 310.2511291503906 25.08684730529785 L 311.0069274902344 24.682357788085938 L 311.7627868652344 24.27859878540039 L 312.51873779296875 23.87554168701172 L 313.2746276855469 23.47327995300293 L 314.030517578125 23.07176399230957 L 314.78643798828125 22.670970916748047 L 315.54229736328125 22.27094268798828 L 316.29827880859375 21.871597290039062 L 317.05401611328125 21.473106384277344 L 317.8100280761719 21.075206756591797 L 318.5659484863281 20.67808723449707 L 319.3217468261719 20.28174591064453 L 320.0776672363281 19.886056900024414 L 320.8336181640625 19.49107551574707 L 321.5894470214844 19.09687614440918 L 322.3453369140625 18.703327178955078 L 323.10125732421875 18.31049346923828 L 323.8571472167969 17.918363571166992 L 324.6129455566406 17.52698516845703 L 325.36883544921875 17.136247634887695 L 326.1247863769531 16.746183395385742 L 326.880615234375 16.35685634613037 L 327.63665771484375 15.968121528625488 L 328.3924255371094 15.580193519592285 L 329.1483459472656 15.192883491516113 L 329.90423583984375 14.806254386901855 L 330.6600646972656 14.420331001281738 L 331.4160461425781 14.034995079040527 L 332.1719970703125 13.650345802307129 L 332.9278564453125 13.266406059265137 L 333.68377685546875 12.883094787597656 L 334.4395446777344 12.50051498413086 L 335.1955261230469 12.11847972869873 L 335.9512939453125 11.737221717834473 L 336.70721435546875 11.356512069702148 L 337.46307373046875 10.97649097442627 L 338.21905517578125 10.597050666809082 L 338.9749755859375 10.218276023864746 L 339.7307434082031 9.840225219726562 L 340.48663330078125 9.462740898132324 L 341.24261474609375 9.085848808288574 L 341.99853515625 8.709598541259766 L 342.75445556640625 8.33398962020874 L 343.51031494140625 7.959022521972656 L 344.2662048339844 7.5846662521362305 L 345.0220947265625 7.2109375 L 345.7779235839844 6.837839603424072 L 346.5338439941406 6.465317249298096 L 347.2897033691406 6.093418121337891 L 348.0456848144531 5.722078800201416 L 348.8015441894531 5.351400852203369 L 349.55731201171875 4.981370449066162 L 350.3132019042969 4.611883163452148 L 351.0691833496094 4.242947816848755 L 351.8249816894531 3.874687433242798 L 352.5810546875 3.506889820098877 L 353.3368225097656 3.139827013015747 L 354.09283447265625 2.77323579788208 L 354.8486022949219 2.4073402881622314 L 355.60443115234375 2.0420010089874268 L 356.36029052734375 1.6772147417068481 L 357.11627197265625 1.3129621148109436 L 357.8722839355469 0.9492625892162323 L 358.6280517578125 0.586251750588417 L 359.38397216796875 0.22372931241989136 L 360.1399230957031 -0.13823843002319336 L 360.8957824707031 -0.4995909333229065 L 361.65155029296875 -0.8603407144546509 L 362.4074401855469 -1.220578670501709 L 363.16339111328125 -1.580308198928833 L 363.9194030761719 -1.9394927024841309 L 364.67523193359375 -2.298058032989502 L 365.4310302734375 -2.6560473442077637 L 366.18695068359375 -3.013535737991333 L 366.9429626464844 -3.3705365657806396 L 367.6988220214844 -3.726924419403076 L 368.4547119140625 -4.082776069641113 L 369.2105712890625 -4.438065528869629 L 369.9664611816406 -4.792850017547607 L 370.7223205566406 -5.147068023681641 L 371.4781188964844 -5.500734329223633 L 372.2340393066406 -5.853936672210693 L 372.98992919921875 -6.2065815925598145 L 373.7459716796875 -6.558769226074219 L 374.5016784667969 -6.91028356552124 L 375.2577819824219 -7.261453628540039 L 376.0136413574219 -7.61199951171875 L 376.7694396972656 -7.961996078491211 L 377.5252990722656 -8.311501502990723 L 378.28125 -8.660534858703613 L 379.03717041015625 -9.009037971496582 L 379.79296875 -9.356988906860352 L 380.5489196777344 -9.704482078552246 L 381.3048095703125 -10.051446914672852 L 382.0605773925781 -10.397858619689941 L 382.8164978027344 -10.743844032287598 L 383.5724792480469 -11.089345932006836 L 384.32843017578125 -11.434328079223633 L 385.0843200683594 -11.778796195983887 L 385.8402099609375 -12.122772216796875 L 386.5960998535156 -12.466254234313965 L 387.351806640625 -12.809160232543945 L 388.10791015625 -13.151750564575195 L 388.8638000488281 -13.493758201599121 L 389.61968994140625 -13.835284233093262 L 390.37554931640625 -14.176315307617188 L 391.1314697265625 -14.516886711120605 L 391.88726806640625 -14.85693645477295 L 392.64306640625 -15.196502685546875 L 393.3990173339844 -15.535648345947266 L 394.15496826171875 -15.87432861328125 L 394.9109191894531 -16.212533950805664 L 395.6667785644531 -16.55022621154785 L 396.4226379394531 -16.887453079223633 L 397.1784362792969 -17.224197387695312 L 397.9344177246094 -17.560535430908203 L 398.69036865234375 -17.896411895751953 L 399.4461669921875 -18.231739044189453 L 400.2020568847656 -18.566665649414062 L 400.9579772949219 -18.90114402770996 L 401.71392822265625 -19.23517417907715 L 402.4696350097656 -19.568632125854492 L 403.2257080078125 -19.901809692382812 L 403.9815979003906 -20.234445571899414 L 404.73748779296875 -20.566635131835938 L 405.4931640625 -20.89828872680664 L 406.24908447265625 -21.229597091674805 L 407.005126953125 -21.560508728027344 L 407.76104736328125 -21.890920639038086 L 408.516845703125 -22.220849990844727 L 409.272705078125 -22.550355911254883 L 410.0287170410156 -22.879487991333008 L 410.78448486328125 -23.20807456970215 L 411.5404052734375 -23.536291122436523 L 412.2962951660156 -23.86406707763672 L 413.05224609375 -24.19141960144043 L 413.80804443359375 -24.518287658691406 L 414.5640869140625 -24.84482765197754 L 415.31988525390625 -25.170841217041016 L 416.07586669921875 -25.496492385864258 L 416.83160400390625 -25.821624755859375 L 417.5876159667969 -26.14643669128418 L 418.34332275390625 -26.4707088470459 L 419.0992431640625 -26.79465103149414 L 419.855224609375 -27.118192672729492 L 420.6111755371094 -27.441299438476562 L 421.3669738769531 -27.763933181762695 L 422.12286376953125 -28.0861873626709 L 422.87884521484375 -28.408058166503906 L 423.63470458984375 -28.729473114013672 L 424.390625 -29.050500869750977 L 425.146484375 -29.371103286743164 L 425.90234375 -29.6912841796875 L 426.6583557128906 -30.0111141204834 L 427.4141540527344 -30.33046531677246 L 428.17010498046875 -30.64946746826172 L 428.9259338378906 -30.9680233001709 L 429.6817626953125 -31.286170959472656 L 430.4376525878906 -31.60394287109375 L 431.193603515625 -31.921337127685547 L 431.9494323730469 -32.23829650878906 L 432.7052307128906 -32.55483627319336 L 433.4612121582031 -32.87105178833008 L 434.2172546386719 -33.186912536621094 L 434.97308349609375 -33.50229263305664 L 435.72894287109375 -33.81727981567383 L 436.48480224609375 -34.13188934326172 L 437.24078369140625 -34.4461555480957 L 437.9966735839844 -34.75999450683594 L 438.75238037109375 -35.07337951660156 L 439.5084228515625 -35.386505126953125 L 440.26434326171875 -35.69921875 L 441.0201110839844 -36.011474609375 L 441.776123046875 -36.32343673706055 L 442.53192138671875 -36.634944915771484 L 443.2878112792969 -36.94611740112305 L 444.0436096191406 -37.25686264038086 L 444.79962158203125 -37.56733322143555 L 445.5553894042969 -37.877323150634766 L 446.31134033203125 -38.18700408935547 L 447.0673522949219 -38.49634552001953 L 447.82330322265625 -38.80529022216797 L 448.57904052734375 -39.11378479003906 L 449.3348083496094 -39.42191696166992 L 450.0909729003906 -39.72983932495117" stroke-opacity="1" stroke-linejoin="bevel" stroke-miterlimit="10" stroke-width="4" clip-path="url(#tqwLDlaOCpUe)"/><path fill="none" stroke="rgb(0,0,0)" paint-order="fill" d="M 89.9090347290039 347.5 L 90.29033660888672 323.0492248535156 L 91.04693603515625 309.6358947753906 L 91.80000305175781 301.1062927246094 L 92.554931640625 294.4342041015625 L 93.310546875 288.8248291015625 L 94.06670379638672 283.9192810058594 L 94.82252502441406 279.5262145996094 L 95.57870483398438 275.5205383300781 L 96.33436584472656 271.8265075683594 L 97.0903091430664 268.3836669921875 L 97.8460464477539 265.1529235839844 L 98.60184478759766 262.1016540527344 L 99.35783386230469 259.20501708984375 L 100.11363983154297 256.4449768066406 L 100.86944580078125 253.80503845214844 L 101.62554931640625 251.27125549316406 L 102.38140869140625 248.8345489501953 L 103.1373062133789 246.48480224609375 L 103.8931884765625 244.21435546875 L 104.64892578125 242.01683044433594 L 105.40487670898438 239.88531494140625 L 106.16080474853516 237.8153839111328 L 106.91665649414062 235.8026580810547 L 107.67257690429688 233.8427276611328 L 108.42840576171875 231.93243408203125 L 109.18431091308594 230.06822204589844 L 109.9401626586914 228.24746704101562 L 110.69612884521484 226.46722412109375 L 111.45201873779297 224.72561645507812 L 112.2078857421875 223.02032470703125 L 112.96376037597656 221.349365234375 L 113.71961975097656 219.71099853515625 L 114.47547912597656 218.10354614257812 L 115.23135375976562 216.52548217773438 L 115.98727416992188 214.97532653808594 L 116.7431640625 213.45196533203125 L 117.49903869628906 211.9541778564453 L 118.2550048828125 210.4806365966797 L 119.01080322265625 209.03079223632812 L 119.7667236328125 207.60316467285156 L 120.52259063720703 206.1971435546875 L 121.27847290039062 204.811767578125 L 122.03440856933594 203.44619750976562 L 122.79029846191406 202.099853515625 L 123.54621124267578 200.77191162109375 L 124.30210876464844 199.46177673339844 L 125.0579605102539 198.1688995361328 L 125.8138427734375 196.89254760742188 L 126.56976318359375 195.63214111328125 L 127.32562255859375 194.38734436035156 L 128.08151245117188 193.15748596191406 L 128.8374481201172 191.9420928955078 L 129.59332275390625 190.74085998535156 L 130.3491973876953 189.5532989501953 L 131.10511779785156 188.37889099121094 L 131.8610076904297 187.2174072265625 L 132.6168670654297 186.0684356689453 L 133.3727569580078 184.93157958984375 L 134.12863159179688 183.80653381347656 L 134.884521484375 182.69296264648438 L 135.6404266357422 181.5905303955078 L 136.39633178710938 180.4989776611328 L 137.15219116210938 179.41807556152344 L 137.90811157226562 178.34744262695312 L 138.66395568847656 177.28697204589844 L 139.4198455810547 176.2362518310547 L 140.17576599121094 175.19508361816406 L 140.931640625 174.163330078125 L 141.6875457763672 173.14065551757812 L 142.44345092773438 172.12689208984375 L 143.19931030273438 171.1219024658203 L 143.95518493652344 170.1254425048828 L 144.71107482910156 169.13726806640625 L 145.4669952392578 168.15719604492188 L 146.22288513183594 167.1851348876953 L 146.97877502441406 166.22088623046875 L 147.7346649169922 165.26425170898438 L 148.49053955078125 164.3151092529297 L 149.24644470214844 163.3732452392578 L 150.00233459472656 162.4385986328125 L 150.75823974609375 161.5109405517578 L 151.51414489746094 160.59017944335938 L 152.26998901367188 159.67623901367188 L 153.02586364746094 158.76889038085938 L 153.7817840576172 157.86798095703125 L 154.5376739501953 156.97349548339844 L 155.29359436035156 156.085205078125 L 156.0494842529297 155.20310974121094 L 156.8053741455078 154.3270263671875 L 157.56124877929688 153.45689392089844 L 158.317138671875 152.59254455566406 L 159.0730438232422 151.73390197753906 L 159.82888793945312 150.8809356689453 L 160.58480834960938 150.0334014892578 L 161.34071350097656 149.19129943847656 L 162.09654235839844 148.3546142578125 L 162.85244750976562 147.52308654785156 L 163.6083221435547 146.69674682617188 L 164.3642120361328 145.87545776367188 L 165.1201629638672 145.05909729003906 L 165.87600708007812 144.2477569580078 L 166.63192749023438 143.441162109375 L 167.38784790039062 142.6393280029297 L 168.14370727539062 141.84222412109375 L 168.89959716796875 141.04969787597656 L 169.65550231933594 140.26170349121094 L 170.411376953125 139.47821044921875 L 171.1672821044922 138.69908142089844 L 171.92315673828125 137.92431640625 L 172.67904663085938 137.15382385253906 L 173.4348907470703 136.38755798339844 L 174.1907958984375 135.6254119873047 L 174.94674682617188 134.8673095703125 L 175.70262145996094 134.11329650878906 L 176.4584503173828 133.36331176757812 L 177.21441650390625 132.6171112060547 L 177.97024536132812 131.87490844726562 L 178.72613525390625 131.136474609375 L 179.48207092285156 130.40174865722656 L 180.2379608154297 129.67076110839844 L 180.99378967285156 128.94351196289062 L 181.749755859375 128.21973419189453 L 182.50559997558594 127.49964904785156 L 183.26153564453125 126.78298950195312 L 184.0173797607422 126.06988525390625 L 184.77330017089844 125.36013793945312 L 185.52919006347656 124.65380859375 L 186.2850799560547 123.9508285522461 L 187.04098510742188 123.25112915039062 L 187.796875 122.55470275878906 L 188.55270385742188 121.8615493774414 L 189.30862426757812 121.17149353027344 L 190.06454467773438 120.48458099365234 L 190.82041931152344 119.8008041381836 L 191.5762939453125 119.12010955810547 L 192.33221435546875 118.44239044189453 L 193.08804321289062 117.76775360107422 L 193.84396362304688 117.09598541259766 L 194.59983825683594 116.42719268798828 L 195.35572814941406 115.76128387451172 L 196.1116180419922 115.09822082519531 L 196.86753845214844 114.43795013427734 L 197.62342834472656 113.780517578125 L 198.37933349609375 113.12582397460938 L 199.13516235351562 112.47393035888672 L 199.8910675048828 111.82466888427734 L 200.64697265625 111.17808532714844 L 201.4029083251953 110.53411865234375 L 202.1587371826172 109.89285278320312 L 202.91468811035156 109.25406646728516 L 203.67056274414062 108.61791229248047 L 204.42642211914062 107.98429107666016 L 205.18231201171875 107.35315704345703 L 205.9381866455078 106.7245101928711 L 206.69410705566406 106.0982894897461 L 207.4499969482422 105.4745101928711 L 208.20591735839844 104.85309600830078 L 208.96180725097656 104.2341079711914 L 209.7176513671875 103.61750030517578 L 210.47352600097656 103.00318908691406 L 211.2294464111328 102.39116668701172 L 211.9853057861328 101.78146362304688 L 212.74124145507812 101.17396545410156 L 213.49713134765625 100.56873321533203 L 214.25296020507812 99.96577453613281 L 215.00885009765625 99.36495971679688 L 215.7648162841797 98.76626586914062 L 216.5206756591797 98.1697998046875 L 217.2765655517578 97.57544708251953 L 218.03245544433594 96.98321533203125 L 218.78831481933594 96.3930892944336 L 219.54421997070312 95.80500030517578 L 220.30007934570312 95.21900177001953 L 221.0560302734375 94.63497924804688 L 221.8119354248047 94.05299377441406 L 222.5677490234375 93.47307586669922 L 223.3236541748047 92.89508056640625 L 224.07957458496094 92.31902313232422 L 224.83547973632812 91.74492645263672 L 225.59132385253906 91.17279815673828 L 226.34722900390625 90.6025390625 L 227.1031036376953 90.03419494628906 L 227.85899353027344 89.46770477294922 L 228.61488342285156 88.90308380126953 L 229.37083435058594 88.34026336669922 L 230.1266632080078 87.77935791015625 L 230.88258361816406 87.22019958496094 L 231.63848876953125 86.66283416748047 L 232.3944091796875 86.10724639892578 L 233.15028381347656 85.55345916748047 L 233.90615844726562 85.00142669677734 L 234.6620330810547 84.45111846923828 L 235.41790771484375 83.90254974365234 L 236.17385864257812 83.35562133789062 L 236.9297332763672 82.81044006347656 L 237.68557739257812 82.26695251464844 L 238.4414825439453 81.72510528564453 L 239.19741821289062 81.18488311767578 L 239.9532928466797 80.64632415771484 L 240.70916748046875 80.10941314697266 L 241.46507263183594 79.57408905029297 L 242.22097778320312 79.04035186767578 L 242.976806640625 78.50827026367188 L 243.7327117919922 77.97769927978516 L 244.48866271972656 77.44866180419922 L 245.24452209472656 76.9212417602539 L 246.00039672851562 76.39534759521484 L 246.75624084472656 75.8709945678711 L 247.51222229003906 75.34806060791016 L 248.26806640625 74.82673645019531 L 249.02392578125 74.306884765625 L 249.77987670898438 73.78844451904297 L 250.53573608398438 73.27153778076172 L 251.29159545898438 72.75609588623047 L 252.04750061035156 72.24205780029297 L 252.80335998535156 71.72949981689453 L 253.5592498779297 71.21833801269531 L 254.3152313232422 70.70853424072266 L 255.07113647460938 70.20018005371094 L 255.82691955566406 69.69330596923828 L 256.5828552246094 69.1877212524414 L 257.3387451171875 68.68352508544922 L 258.0946350097656 68.18069458007812 L 258.85052490234375 67.67921447753906 L 259.6064758300781 67.17906188964844 L 260.3623046875 66.6802978515625 L 261.1181640625 66.18285369873047 L 261.87408447265625 65.68669128417969 L 262.6300048828125 65.19181823730469 L 263.3858337402344 64.69831085205078 L 264.1417541503906 64.2060432434082 L 264.8976135253906 63.715087890625 L 265.65350341796875 63.225372314453125 L 266.409423828125 62.73691940307617 L 267.16534423828125 62.24970626831055 L 267.92120361328125 61.76377487182617 L 268.67706298828125 61.279090881347656 L 269.4329833984375 60.79557800292969 L 270.1888427734375 60.3133430480957 L 270.9447937011719 59.83224868774414 L 271.7006530761719 59.35242462158203 L 272.45660400390625 58.87372970581055 L 273.21240234375 58.39633560180664 L 273.9683837890625 57.91999816894531 L 274.72418212890625 57.4449348449707 L 275.4800720214844 56.970985412597656 L 276.23602294921875 56.49816131591797 L 276.99188232421875 56.02653503417969 L 277.74774169921875 55.556060791015625 L 278.5036926269531 55.08666229248047 L 279.2596435546875 54.61839294433594 L 280.01544189453125 54.15133285522461 L 280.7713317871094 53.685325622558594 L 281.52728271484375 53.22039031982422 L 282.2831115722656 52.756622314453125 L 283.0390319824219 52.29390335083008 L 283.794921875 51.83228302001953 L 284.5508117675781 51.371734619140625 L 285.306640625 50.91230392456055 L 286.0625915527344 50.4538688659668 L 286.8184814453125 49.99652099609375 L 287.5744323730469 49.54019546508789 L 288.3302001953125 49.085018157958984 L 289.08612060546875 48.63078689575195 L 289.8420715332031 48.177574157714844 L 290.59796142578125 47.72542190551758 L 291.3538818359375 47.27428436279297 L 292.1097412109375 46.82418441772461 L 292.8655700683594 46.375118255615234 L 293.62152099609375 45.92698287963867 L 294.3774108886719 45.479881286621094 L 295.1332702636719 45.033775329589844 L 295.88916015625 44.588653564453125 L 296.6450500488281 44.14449691772461 L 297.40087890625 43.70134353637695 L 298.1567687988281 43.259132385253906 L 298.9126892089844 42.81787872314453 L 299.6686706542969 42.37752914428711 L 300.424560546875 41.93818664550781 L 301.1804504394531 41.499794006347656 L 301.93634033203125 41.06233596801758 L 302.6921691894531 40.625858306884766 L 303.44805908203125 40.19026565551758 L 304.2039489746094 39.755592346191406 L 304.9598388671875 39.321842193603516 L 305.7157287597656 38.88901138305664 L 306.4716796875 38.45703887939453 L 307.22747802734375 38.02608108520508 L 307.98345947265625 37.59590148925781 L 308.7392272949219 37.1667366027832 L 309.4952392578125 36.738338470458984 L 310.2510681152344 36.31090545654297 L 311.0069885253906 35.884315490722656 L 311.76287841796875 35.45859909057617 L 312.5187683105469 35.03377151489258 L 313.2746276855469 34.60980987548828 L 314.0306091308594 34.18666458129883 L 314.7864074707031 33.76444625854492 L 315.5422668457031 33.34305953979492 L 316.2982482910156 32.922454833984375 L 317.05413818359375 32.50273895263672 L 317.8100280761719 32.083866119384766 L 318.56585693359375 31.66584014892578 L 319.32177734375 31.248619079589844 L 320.0777282714844 30.832185745239258 L 320.83349609375 30.41667366027832 L 321.58941650390625 30.001895904541016 L 322.3453063964844 29.58795928955078 L 323.1012268066406 29.17479705810547 L 323.8570861816406 28.762468338012695 L 324.61297607421875 28.350933074951172 L 325.368896484375 27.9401798248291 L 326.12469482421875 27.53026008605957 L 326.880615234375 27.121084213256836 L 327.6365966796875 26.7126522064209 L 328.39251708984375 26.305025100708008 L 329.14825439453125 25.898265838623047 L 329.90423583984375 25.492158889770508 L 330.66015625 25.08684730529785 L 331.41595458984375 24.682357788085938 L 332.17181396484375 24.27859878540039 L 332.92779541015625 23.87554168701172 L 333.68365478515625 23.47327995300293 L 334.4395446777344 23.07176399230957 L 335.1954650878906 22.670970916748047 L 335.9513244628906 22.27094268798828 L 336.7073059082031 21.871597290039062 L 337.46307373046875 21.473106384277344 L 338.2190856933594 21.075206756591797 L 338.9749755859375 20.67808723449707 L 339.73077392578125 20.28174591064453 L 340.4867248535156 19.886056900024414 L 341.2426452636719 19.49107551574707 L 341.99847412109375 19.09687614440918 L 342.75439453125 18.703327178955078 L 343.5102844238281 18.31049346923828 L 344.26617431640625 17.918363571166992 L 345.02197265625 17.52698516845703 L 345.77789306640625 17.136247634887695 L 346.5338134765625 16.746183395385742 L 347.2896728515625 16.35685634613037 L 348.0456848144531 15.968121528625488 L 348.8014831542969 15.580193519592285 L 349.557373046875 15.192883491516113 L 350.3132629394531 14.806254386901855 L 351.069091796875 14.420331001281738 L 351.8250732421875 14.034995079040527 L 352.5810241699219 13.650345802307129 L 353.3368835449219 13.266406059265137 L 354.0928039550781 12.883094787597656 L 354.84857177734375 12.50051498413086 L 355.6045837402344 12.11847972869873 L 356.3603210449219 11.737221717834473 L 357.11627197265625 11.356512069702148 L 357.8721008300781 10.97649097442627 L 358.6280822753906 10.597050666809082 L 359.384033203125 10.218276023864746 L 360.1397705078125 9.840225219726562 L 360.8956604003906 9.462740898132324 L 361.6516418457031 9.085848808288574 L 362.4075622558594 8.709598541259766 L 363.1634826660156 8.33398962020874 L 363.91937255859375 7.959022521972656 L 364.6752624511719 7.5846662521362305 L 365.4311218261719 7.2109375 L 366.18695068359375 6.837839603424072 L 366.94287109375 6.465317249298096 L 367.6987609863281 6.093418121337891 L 368.4547424316406 5.722078800201416 L 369.2106018066406 5.351400852203369 L 369.96636962890625 4.981370449066162 L 370.72222900390625 4.611883163452148 L 371.47821044921875 4.242947816848755 L 372.2340087890625 3.874687433242798 L 372.9900817871094 3.506889820098877 L 373.745849609375 3.139827013015747 L 374.5018615722656 2.77323579788208 L 375.25762939453125 2.4073402881622314 L 376.0134582519531 2.0420010089874268 L 376.76934814453125 1.6772147417068481 L 377.5252990722656 1.3129621148109436 L 378.28131103515625 0.9492625892162323 L 379.0370788574219 0.586251750588417 L 379.7929992675781 0.22372931241989136 L 380.5489807128906 -0.13823843002319336 L 381.3048095703125 -0.4995909333229065 L 382.0605773925781 -0.8603407144546509 L 382.81646728515625 -1.220578670501709 L 383.5724182128906 -1.580308198928833 L 384.32843017578125 -1.9394927024841309 L 385.0842590332031 -2.298058032989502 L 385.8400573730469 -2.6560473442077637 L 386.5959777832031 -3.013535737991333 L 387.35198974609375 -3.3705365657806396 L 388.1078796386719 -3.726924419403076 L 388.86376953125 -4.082776069641113 L 389.6195983886719 -4.438065528869629 L 390.37548828125 -4.792850017547607 L 391.13134765625 -5.147068023681641 L 391.88714599609375 -5.500734329223633 L 392.6430969238281 -5.853936672210693 L 393.3989562988281 -6.2065815925598145 L 394.1549987792969 -6.558769226074219 L 394.91070556640625 -6.91028356552124 L 395.66680908203125 -7.261453628540039 L 396.42266845703125 -7.61199951171875 L 397.178466796875 -7.961996078491211 L 397.934326171875 -8.311501502990723 L 398.6902770996094 -8.660534858703613 L 399.4461975097656 -9.009037971496582 L 400.2020263671875 -9.356988906860352 L 400.95794677734375 -9.704482078552246 L 401.7138366699219 -10.051446914672852 L 402.4696044921875 -10.397858619689941 L 403.2255554199219 -10.743844032287598 L 403.98150634765625 -11.089345932006836 L 404.7374572753906 -11.434328079223633 L 405.49334716796875 -11.778796195983887 L 406.2492370605469 -12.122772216796875 L 407.0051574707031 -12.466254234313965 L 407.7608642578125 -12.809160232543945 L 408.5169372558594 -13.151750564575195 L 409.2728271484375 -13.493758201599121 L 410.0287170410156 -13.835284233093262 L 410.7845764160156 -14.176315307617188 L 411.5404968261719 -14.516886711120605 L 412.2962951660156 -14.85693645477295 L 413.0521240234375 -15.196502685546875 L 413.80804443359375 -15.535648345947266 L 414.5639953613281 -15.87432861328125 L 415.3199462890625 -16.212533950805664 L 416.0758056640625 -16.55022621154785 L 416.8316650390625 -16.887453079223633 L 417.5874938964844 -17.224197387695312 L 418.34344482421875 -17.560535430908203 L 419.09942626953125 -17.896411895751953 L 419.8551940917969 -18.231739044189453 L 420.611083984375 -18.566665649414062 L 421.3670349121094 -18.90114402770996 L 422.12298583984375 -19.23517417907715 L 422.878662109375 -19.568632125854492 L 423.6347351074219 -19.901809692382812 L 424.390625 -20.234445571899414 L 425.1465148925781 -20.566635131835938 L 425.9021911621094 -20.89828872680664 L 426.65814208984375 -21.229597091674805 L 427.4141540527344 -21.560508728027344 L 428.1700744628906 -21.890920639038086 L 428.9259033203125 -22.220849990844727 L 429.6817626953125 -22.550355911254883 L 430.4377746582031 -22.879487991333008 L 431.1935119628906 -23.20807456970215 L 431.9494323730469 -23.536291122436523 L 432.7053527832031 -23.86406707763672 L 433.4612731933594 -24.19141960144043 L 434.2170715332031 -24.518287658691406 L 434.9731140136719 -24.84482765197754 L 435.72894287109375 -25.170841217041016 L 436.4848937988281 -25.496492385864258 L 437.2406311035156 -25.821624755859375 L 437.99664306640625 -26.14643669128418 L 438.7523498535156 -26.4707088470459 L 439.5082702636719 -26.79465103149414 L 440.2642517089844 -27.118192672729492 L 441.02020263671875 -27.441299438476562 L 441.7760009765625 -27.763933181762695 L 442.5318908691406 -28.0861873626709 L 443.2878723144531 -28.408058166503906 L 444.0437316894531 -28.729473114013672 L 444.7996520996094 -29.050500869750977 L 445.5555419921875 -29.371103286743164 L 446.3113708496094 -29.6912841796875 L 447.0673828125 -30.0111141204834 L 447.82318115234375 -30.33046531677246 L 448.5791320800781 -30.64946746826172 L 449.3349914550781 -30.9680233001709 L 450.0907897949219 -31.286170959472656 L 450.8466796875 -31.60394287109375 L 451.6026306152344 -31.921337127685547 L 452.35845947265625 -32.23829650878906 L 453.1142578125 -32.55483627319336 L 453.8702392578125 -32.87105178833008 L 454.62628173828125 -33.186912536621094 L 455.38214111328125 -33.50229263305664 L 456.1379699707031 -33.81727981567383 L 456.8938293457031 -34.13188934326172 L 457.6498107910156 -34.4461555480957 L 458.40570068359375 -34.75999450683594 L 459.1614074707031 -35.07337951660156 L 459.9174499511719 -35.386505126953125 L 460.67340087890625 -35.69921875 L 461.4291687011719 -36.011474609375 L 462.1851501464844 -36.32343673706055 L 462.9409484863281 -36.634944915771484 L 463.69683837890625 -36.94611740112305 L 464.45263671875 -37.25686264038086 L 465.20867919921875 -37.56733322143555 L 465.96441650390625 -37.877323150634766 L 466.7203674316406 -38.18700408935547 L 467.47637939453125 -38.49634552001953 L 468.2323303222656 -38.80529022216797 L 468.9880676269531 -39.11378479003906 L 469.74383544921875 -39.42191696166992 L 470.5 -39.72983932495117" stroke-opacity="1" stroke-linejoin="bevel" stroke-miterlimit="10" stroke-width="4" clip-path="url(#dLuXapUDIFDs)"/><path fill="none" stroke="rgb(169,169,169)" paint-order="fill" d="M 69.5 347.5 L 69.88130187988281 345.61114501953125 L 70.63790130615234 341.8631896972656 L 71.3909683227539 338.1327209472656 L 72.1458969116211 334.3930358886719 L 72.90151977539062 330.6499328613281 L 73.65766906738281 326.9041748046875 L 74.41349029541016 323.16009521484375 L 75.16967010498047 319.4142150878906 L 75.92533111572266 315.6708984375 L 76.6812744140625 311.92620849609375 L 77.43701171875 308.1824951171875 L 78.19281005859375 304.43853759765625 L 78.94879913330078 300.6935729980469 L 79.70460510253906 296.9495849609375 L 80.46041107177734 293.20550537109375 L 81.21651458740234 289.46002197265625 L 81.97237396240234 285.7157287597656 L 82.728271484375 281.97125244140625 L 83.4841537475586 278.2268371582031 L 84.2398910522461 274.483154296875 L 84.995849609375 270.7384033203125 L 85.75177001953125 266.9937744140625 L 86.50762176513672 263.2495422363281 L 87.26354217529297 259.50494384765625 L 88.01937103271484 255.7607879638672 L 88.77527618408203 252.0162811279297 L 89.5311279296875 248.2720184326172 L 90.28710174560547 244.52719116210938 L 91.04298400878906 240.7827606201172 L 91.7988510131836 237.03842163085938 L 92.55473327636719 233.29403686523438 L 93.31059265136719 229.54974365234375 L 94.06644439697266 225.8054656982422 L 94.82231903076172 222.06109619140625 L 95.57823944091797 218.31649780273438 L 96.3341293334961 214.5720672607422 L 97.09000396728516 210.82769775390625 L 97.8459701538086 207.0828857421875 L 98.60176849365234 203.33888244628906 L 99.3576889038086 199.5943145751953 L 100.11355590820312 195.84996032714844 L 100.86943817138672 192.1055450439453 L 101.62537384033203 188.3608856201172 L 102.38126373291016 184.61643981933594 L 103.13717651367188 180.8718719482422 L 103.89308166503906 177.1273956298828 L 104.64893341064453 173.3831329345703 L 105.4048080444336 169.6387481689453 L 106.16072845458984 165.8941650390625 L 106.91658782958984 162.14987182617188 L 107.67247772216797 158.40542602539062 L 108.42841339111328 154.66075134277344 L 109.18428802490234 150.91639709472656 L 109.9401626586914 147.17202758789062 L 110.69608306884766 143.4274139404297 L 111.45196533203125 139.68301391601562 L 112.20783996582031 135.93865966796875 L 112.9637222290039 132.19424438476562 L 113.7196044921875 128.4498519897461 L 114.4754867553711 124.7054443359375 L 115.23139190673828 120.96092224121094 L 115.98728942871094 117.21641540527344 L 116.74315643310547 113.47209167480469 L 117.49907684326172 109.72750091552734 L 118.25491333007812 105.98331451416016 L 119.01081085205078 102.23884582519531 L 119.76673126220703 98.49425506591797 L 120.52259826660156 94.74991607666016 L 121.27851104736328 91.00537872314453 L 122.034423828125 87.26082611083984 L 122.790283203125 83.51651763916016 L 123.54615020751953 79.77218627929688 L 124.30204772949219 76.02772521972656 L 125.05796813964844 72.28312683105469 L 125.81385803222656 68.53866577148438 L 126.56973266601562 64.79429626464844 L 127.32563018798828 61.04983139038086 L 128.08151245117188 57.30541229248047 L 128.83741760253906 53.56089401245117 L 129.59329223632812 49.816497802734375 L 130.34921264648438 46.07196044921875 L 131.1051025390625 42.327476501464844 L 131.8609619140625 38.58320617675781 L 132.61683654785156 34.8388557434082 L 133.3727569580078 31.09426498413086 L 134.12863159179688 27.349853515625 L 134.8845672607422 23.605224609375 L 135.64044189453125 19.860815048217773 L 136.39634704589844 16.116342544555664 L 137.15220642089844 12.371991157531738 L 137.90811157226562 8.627535820007324 L 138.6640167236328 4.88299560546875 L 139.4198455810547 1.1388272047042847 L 140.17576599121094 -2.6057751178741455 L 140.9316864013672 -6.350320339202881 L 141.6875 -10.094447135925293 L 142.44342041015625 -13.838982582092285 L 143.1992950439453 -17.5833683013916 L 143.95518493652344 -21.32781982421875 L 144.7111358642578 -25.07254981994629 L 145.4669647216797 -28.816730499267578 L 146.222900390625 -32.56135559082031 L 146.9788055419922 -36.3059196472168 L 147.73468017578125 -40.05022430419922 L 148.49057006835938 -43.79469680786133 L 149.2464599609375 -47.5391731262207 L 150.00233459472656 -51.28354263305664 L 150.7582550048828 -55.02809143066406 L 151.51412963867188 -58.772464752197266 L 152.27000427246094 -62.51688003540039 L 153.02586364746094 -66.26113891601562 L 153.78175354003906 -70.00559997558594 L 154.53770446777344 -73.75035095214844 L 155.29359436035156 -77.4947509765625 L 156.04942321777344 -81.23890686035156 L 156.80538940429688 -84.98369598388672 L 157.56121826171875 -88.72786712646484 L 158.31710815429688 -92.47228240966797 L 159.07302856445312 -96.21692657470703 L 159.82891845703125 -99.96138000488281 L 160.5847625732422 -103.70556640625 L 161.34072875976562 -107.45037078857422 L 162.0965576171875 -111.1945571899414 L 162.8524932861328 -114.9392318725586 L 163.6083526611328 -118.6834716796875 L 164.36427307128906 -122.42809295654297 L 165.1201629638672 -126.17251586914062 L 165.8760528564453 -129.9169464111328 L 166.63194274902344 -133.6614532470703 L 167.38783264160156 -137.40586853027344 L 168.1436767578125 -141.15003967285156 L 168.89959716796875 -144.89463806152344 L 169.65550231933594 -148.63922119140625 L 170.41139221191406 -152.3836212158203 L 171.16725158691406 -156.12796020507812 L 171.92318725585938 -159.87255859375 L 172.67901611328125 -163.61671447753906 L 173.4349365234375 -167.36134338378906 L 174.19081115722656 -171.1056671142578 L 174.94668579101562 -174.85008239746094 L 175.70257568359375 -178.5945281982422 L 176.45851135253906 -182.33917236328125 L 177.2144012451172 -186.08358764648438 L 177.97030639648438 -189.82810974121094 L 178.7261199951172 -193.57223510742188 L 179.48204040527344 -197.31680297851562 L 180.23794555664062 -201.061279296875 L 180.99386596679688 -204.80592346191406 L 181.7497100830078 -208.5500946044922 L 182.5056610107422 -212.2948455810547 L 183.2615203857422 -216.0391845703125 L 184.01739501953125 -219.78353881835938 L 184.77328491210938 -223.52796936035156 L 185.52915954589844 -227.2723388671875 L 186.28506469726562 -231.01687622070312 L 187.04095458984375 -234.76132202148438 L 187.79689025878906 -238.50596618652344 L 188.55276489257812 -242.2503662109375 L 189.30860900878906 -245.99459838867188 L 190.0644989013672 -249.739013671875 L 190.82040405273438 -253.48353576660156 L 191.57627868652344 -257.22784423828125 L 192.3321990966797 -260.9725036621094 L 193.0880889892578 -264.71697998046875 L 193.84393310546875 -268.46112060546875 L 194.5998077392578 -272.20556640625 L 195.3557891845703 -275.95037841796875 L 196.1116485595703 -279.6946716308594 L 196.86753845214844 -283.4391174316406 L 197.6234130859375 -287.1835632324219 L 198.3792724609375 -290.9278259277344 L 199.13519287109375 -294.67236328125 L 199.89105224609375 -298.41668701171875 L 200.64698791503906 -302.161376953125 L 201.4029083251953 -305.90594482421875 L 202.15872192382812 -309.6500244140625 L 202.91461181640625 -313.3945007324219 L 203.67054748535156 -317.1391296386719 L 204.42645263671875 -320.8836364746094 L 205.1822967529297 -324.62786865234375 L 205.93820190429688 -328.37237548828125 L 206.69407653808594 -332.1167297363281 L 207.44996643066406 -335.8612060546875 L 208.2058563232422 -339.6056213378906 L 208.96180725097656 -343.3503723144531 L 209.71763610839844 -347.0945129394531 L 210.47354125976562 -350.8390808105469 L 211.22946166992188 -354.5836181640625 L 211.98538208007812 -358.3282470703125 L 212.7412567138672 -362.0726013183594 L 213.4971160888672 -365.8169250488281 L 214.2530059814453 -369.56134033203125 L 215.0088653564453 -373.3056640625 L 215.7648162841797 -377.0504150390625 L 216.52069091796875 -380.7947692871094 L 217.27655029296875 -384.5390319824219 L 218.03245544433594 -388.2835388183594 L 218.7883758544922 -392.0281677246094 L 219.5442657470703 -395.7726135253906 L 220.30014038085938 -399.5169372558594 L 221.0560302734375 -403.2614440917969 L 221.81195068359375 -407.0060119628906 L 222.56776428222656 -410.7500915527344 L 223.3236846923828 -414.4946594238281 L 224.0796356201172 -418.2393798828125 L 224.8354949951172 -421.9836730957031 L 225.59136962890625 -425.7280578613281 L 226.3472137451172 -429.4722900390625 L 227.1031951904297 -433.2171936035156 L 227.85902404785156 -436.9613342285156 L 228.61488342285156 -440.7056579589844 L 229.37083435058594 -444.4504089355469 L 230.126708984375 -448.1947326660156 L 230.882568359375 -451.93902587890625 L 231.6384735107422 -455.68353271484375 L 232.39431762695312 -459.42779541015625 L 233.15020751953125 -463.1722412109375 L 233.90618896484375 -466.9171447753906 L 234.66209411621094 -470.6616516113281 L 235.4178924560547 -474.4056091308594 L 236.17381286621094 -478.1501770019531 L 236.92970275878906 -481.8946838378906 L 237.68560791015625 -485.63916015625 L 238.44151306152344 -489.3836364746094 L 239.1974334716797 -493.1282653808594 L 239.95327758789062 -496.8725280761719 L 240.70913696289062 -500.6167907714844 L 241.4650421142578 -504.361328125 L 242.22097778320312 -508.1059875488281 L 242.976806640625 -511.85015869140625 L 243.73272705078125 -515.5946655273438 L 244.4885711669922 -519.3389282226562 L 245.24447631835938 -523.08349609375 L 246.00038146972656 -526.8279418945312 L 246.7563018798828 -530.5725708007812 L 247.51217651367188 -534.31689453125 L 248.2680206298828 -538.0611572265625 L 249.02395629882812 -541.8058471679688 L 249.77981567382812 -545.550048828125 L 250.5357666015625 -549.2948608398438 L 251.2916259765625 -553.0391235351562 L 252.04757690429688 -556.783935546875 L 252.80335998535156 -560.52783203125 L 253.55934143066406 -564.272705078125 L 254.31515502929688 -568.0167236328125 L 255.071044921875 -571.76123046875 L 255.82699584960938 -575.5059204101562 L 256.5828552246094 -579.250244140625 L 257.3387145996094 -582.9945068359375 L 258.09466552734375 -586.7392578125 L 258.8506164550781 -590.4839477539062 L 259.60638427734375 -594.2279663085938 L 260.3623046875 -597.972412109375 L 261.1182556152344 -601.7171630859375 L 261.87408447265625 -605.4613647460938 L 262.6300048828125 -609.2059326171875 L 263.3858947753906 -612.9503784179688 L 264.14178466796875 -616.6948852539062 L 264.8976135253906 -620.43896484375 L 265.653564453125 -624.1837158203125 L 266.4094543457031 -627.9281616210938 L 267.1654052734375 -631.6728515625 L 267.9211730957031 -635.4166870117188 L 268.6770935058594 -639.1613159179688 L 269.43304443359375 -642.9060668945312 L 270.1889343261719 -646.6505737304688 L 270.9448547363281 -650.3950805664062 L 271.7007141113281 -654.139404296875 L 272.45654296875 -657.883544921875 L 273.2124938964844 -661.6282348632812 L 273.9683532714844 -665.3726196289062 L 274.7242431640625 -669.1170043945312 L 275.4801025390625 -672.8613891601562 L 276.23602294921875 -676.6058959960938 L 276.9918518066406 -680.35009765625 L 277.74774169921875 -684.0945434570312 L 278.5036315917969 -687.8390502929688 L 279.2596435546875 -691.583984375 L 280.0155334472656 -695.3284301757812 L 280.77142333984375 -699.0728759765625 L 281.5273132324219 -702.8173217773438 L 282.2831115722656 -706.5614013671875 L 283.03900146484375 -710.3058471679688 L 283.794921875 -714.0503540039062 L 284.5508117675781 -717.7947998046875 L 285.30670166015625 -721.5391845703125 L 286.0626525878906 -725.2839965820312 L 286.8184509277344 -729.0278930664062 L 287.5744323730469 -732.7728271484375 L 288.3302001953125 -736.5167236328125 L 289.086181640625 -740.2616577148438 L 289.842041015625 -744.0059204101562 L 290.59796142578125 -747.7504272460938 L 291.3538513183594 -751.4949951171875 L 292.1097412109375 -755.2393798828125 L 292.8656005859375 -758.9837036132812 L 293.6215515136719 -762.7284545898438 L 294.37738037109375 -766.4725952148438 L 295.13323974609375 -770.2168579101562 L 295.88922119140625 -773.9617309570312 L 296.6451110839844 -777.7061767578125 L 297.4009704589844 -781.4505615234375 L 298.1568298339844 -785.19482421875 L 298.9127197265625 -788.9392700195312 L 299.668701171875 -792.68408203125 L 300.4244689941406 -796.427978515625 L 301.1803894042969 -800.1725463867188 L 301.9362487792969 -803.9169311523438 L 302.69219970703125 -807.6615600585938 L 303.44805908203125 -811.4058837890625 L 304.2039489746094 -815.1502685546875 L 304.9598388671875 -818.8948364257812 L 305.7156677246094 -822.638916015625 L 306.4715881347656 -826.3834228515625 L 307.2275390625 -830.1282958984375 L 307.9834899902344 -833.8729248046875 L 308.7392272949219 -837.61669921875 L 309.4952087402344 -841.3615112304688 L 310.2511291503906 -845.1061401367188 L 311.0069274902344 -848.8501586914062 L 311.7627868652344 -852.594482421875 L 312.51873779296875 -856.3392333984375 L 313.2746276855469 -860.0836791992188 L 314.030517578125 -863.8280639648438 L 314.78643798828125 -867.5726318359375 L 315.54229736328125 -871.3170166015625 L 316.29827880859375 -875.0618896484375 L 317.05401611328125 -878.8056640625 L 317.8100280761719 -882.5506591796875 L 318.5659484863281 -886.2952270507812 L 319.3217468261719 -890.0391845703125 L 320.0776672363281 -893.7838134765625 L 320.8336181640625 -897.528564453125 L 321.5894470214844 -901.2725830078125 L 322.3453369140625 -905.0172119140625 L 323.10125732421875 -908.76171875 L 323.8571472167969 -912.5061645507812 L 324.6129455566406 -916.2501831054688 L 325.36883544921875 -919.99462890625 L 326.1247863769531 -923.7393188476562 L 326.880615234375 -927.4835205078125 L 327.63665771484375 -931.2286376953125 L 328.3924255371094 -934.9725341796875 L 329.1483459472656 -938.717041015625 L 329.90423583984375 -942.4614868164062 L 330.6600646972656 -946.2056274414062 L 331.4160461425781 -949.9505615234375 L 332.1719970703125 -953.6953125 L 332.9278564453125 -957.4395751953125 L 333.68377685546875 -961.1842041015625 L 334.4395446777344 -964.9281005859375 L 335.1955261230469 -968.6730346679688 L 335.9512939453125 -972.416748046875 L 336.70721435546875 -976.1614379882812 L 337.46307373046875 -979.9057006835938 L 338.21905517578125 -983.650634765625 L 338.9749755859375 -987.395263671875 L 339.7307434082031 -991.1390380859375 L 340.48663330078125 -994.8834838867188 L 341.24261474609375 -998.6282958984375 L 341.99853515625 -1002.3729858398438 L 342.75445556640625 -1006.1175537109375 L 343.51031494140625 -1009.8618774414062 L 344.2662048339844 -1013.6063232421875 L 345.0220947265625 -1017.3506469726562 L 345.7779235839844 -1021.0948486328125 L 346.5338439941406 -1024.83935546875 L 347.2897033691406 -1028.5838623046875 L 348.0456848144531 -1032.3287353515625 L 348.8015441894531 -1036.072998046875 L 349.55731201171875 -1039.81689453125 L 350.3132019042969 -1043.561279296875 L 351.0691833496094 -1047.3060302734375 L 351.8249816894531 -1051.0501708984375 L 352.5810546875 -1054.79541015625 L 353.3368225097656 -1058.539306640625 L 354.09283447265625 -1062.2843017578125 L 354.8486022949219 -1066.0281982421875 L 355.60443115234375 -1069.7723388671875 L 356.36029052734375 -1073.5167236328125 L 357.11627197265625 -1077.261474609375 L 357.8722839355469 -1081.0064697265625 L 358.6280517578125 -1084.7503662109375 L 359.38397216796875 -1088.4949951171875 L 360.1399230957031 -1092.2398681640625 L 360.8957824707031 -1095.9840087890625 L 361.65155029296875 -1099.7279052734375 L 362.4074401855469 -1103.4722900390625 L 363.16339111328125 -1107.217041015625 L 363.9194030761719 -1110.9620361328125 L 364.67523193359375 -1114.706298828125 L 365.4310302734375 -1118.4503173828125 L 366.18695068359375 -1122.1947021484375 L 366.9429626464844 -1125.9398193359375 L 367.6988220214844 -1129.6842041015625 L 368.4547119140625 -1133.4287109375 L 369.2105712890625 -1137.1728515625 L 369.9664611816406 -1140.9173583984375 L 370.7223205566406 -1144.66162109375 L 371.4781188964844 -1148.4056396484375 L 372.2340393066406 -1152.1502685546875 L 372.98992919921875 -1155.8946533203125 L 373.7459716796875 -1159.639892578125 L 374.5016784667969 -1163.3834228515625 L 375.2577819824219 -1167.12890625 L 376.0136413574219 -1170.8731689453125 L 376.7694396972656 -1174.6171875 L 377.5252990722656 -1178.3614501953125 L 378.28125 -1182.106201171875 L 379.03717041015625 -1185.850830078125 L 379.79296875 -1189.5948486328125 L 380.5489196777344 -1193.3394775390625 L 381.3048095703125 -1197.083984375 L 382.0605773925781 -1200.8277587890625 L 382.8164978027344 -1204.572509765625 L 383.5724792480469 -1208.3173828125 L 384.32843017578125 -1212.06201171875 L 385.0843200683594 -1215.8065185546875 L 385.8402099609375 -1219.551025390625 L 386.5960998535156 -1223.29541015625 L 387.351806640625 -1227.0389404296875 L 388.10791015625 -1230.784423828125 L 388.8638000488281 -1234.52880859375 L 389.61968994140625 -1238.2733154296875 L 390.37554931640625 -1242.017578125 L 391.1314697265625 -1245.7620849609375 L 391.88726806640625 -1249.5062255859375 L 392.64306640625 -1253.250244140625 L 393.3990173339844 -1256.994873046875 L 394.15496826171875 -1260.7396240234375 L 394.9109191894531 -1264.484375 L 395.6667785644531 -1268.2286376953125 L 396.4226379394531 -1271.972900390625 L 397.1784362792969 -1275.717041015625 L 397.9344177246094 -1279.4619140625 L 398.69036865234375 -1283.2066650390625 L 399.4461669921875 -1286.9505615234375 L 400.2020568847656 -1290.695068359375 L 400.9579772949219 -1294.439697265625 L 401.71392822265625 -1298.1844482421875 L 402.4696350097656 -1301.927978515625 L 403.2257080078125 -1305.67333984375 L 403.9815979003906 -1309.417724609375 L 404.73748779296875 -1313.162109375 L 405.4931640625 -1316.9056396484375 L 406.24908447265625 -1320.6502685546875 L 407.005126953125 -1324.3953857421875 L 407.76104736328125 -1328.139892578125 L 408.516845703125 -1331.884033203125 L 409.272705078125 -1335.6282958984375 L 410.0287170410156 -1339.3734130859375 L 410.78448486328125 -1343.1171875 L 411.5404052734375 -1346.8616943359375 L 412.2962951660156 -1350.606201171875 L 413.05224609375 -1354.350830078125 L 413.80804443359375 -1358.0948486328125 L 414.5640869140625 -1361.840087890625 L 415.31988525390625 -1365.5841064453125 L 416.07586669921875 -1369.3289794921875 L 416.83160400390625 -1373.07275390625 L 417.5876159667969 -1376.817626953125 L 418.34332275390625 -1380.561279296875 L 419.0992431640625 -1384.305908203125 L 419.855224609375 -1388.05078125 L 420.6111755371094 -1391.79541015625 L 421.3669738769531 -1395.53955078125 L 422.12286376953125 -1399.283935546875 L 422.87884521484375 -1403.02880859375 L 423.63470458984375 -1406.7730712890625 L 424.390625 -1410.5177001953125 L 425.146484375 -1414.2620849609375 L 425.90234375 -1418.00634765625 L 426.6583557128906 -1421.751220703125 L 427.4141540527344 -1425.495361328125 L 428.17010498046875 -1429.2401123046875 L 428.9259338378906 -1432.9842529296875 L 429.6817626953125 -1436.7283935546875 L 430.4376525878906 -1440.4727783203125 L 431.193603515625 -1444.217529296875 L 431.9494323730469 -1447.9617919921875 L 432.7052307128906 -1451.7056884765625 L 433.4612121582031 -1455.4505615234375 L 434.2172546386719 -1459.19580078125 L 434.97308349609375 -1462.93994140625 L 435.72894287109375 -1466.6842041015625 L 436.48480224609375 -1470.428466796875 L 437.24078369140625 -1474.1734619140625 L 437.9966735839844 -1477.9178466796875 L 438.75238037109375 -1481.661376953125 L 439.5084228515625 -1485.406494140625 L 440.26434326171875 -1489.1512451171875 L 441.0201110839844 -1492.8951416015625 L 441.776123046875 -1496.6400146484375 L 442.53192138671875 -1500.384033203125 L 443.2878112792969 -1504.1285400390625 L 444.0436096191406 -1507.8724365234375 L 444.79962158203125 -1511.6175537109375 L 445.5553894042969 -1515.3614501953125 L 446.31134033203125 -1519.1060791015625 L 447.0673522949219 -1522.85107421875 L 447.82330322265625 -1526.5958251953125 L 448.57904052734375 -1530.339599609375 L 449.3348083496094 -1534.08349609375 L 450.0909729003906 -1537.8292236328125" stroke-opacity="1" stroke-linejoin="bevel" stroke-miterlimit="10" stroke-width="4" stroke-dasharray="2,4" clip-path="url(#gZqltHFPIIhm)"/><path fill="rgb(128,128,128)" stroke="rgb(128,128,128)" paint-order="fill" d="M 396.64306640625 56.454833984375 A 4 4 0 0 1 388.64306640625 56.454833984375 A 4 4 0 0 1 396.64306640625 56.454833984375" fill-opacity="1" clip-path="url(#AnUBAVyWfMbf)" stroke-opacity="1" stroke-linejoin="bevel" stroke-miterlimit="10"/><path fill="none" stroke="rgb(0,0,0)" paint-order="fill" d="M 69.5 347.5 L 470.5 347.5" stroke-opacity="1" stroke-linejoin="bevel" stroke-miterlimit="10"/><path fill="none" stroke="rgb(0,0,0)" paint-order="fill" d="M 69.5 353.5 L 69.5 345.5 M 123.5 353.5 L 123.5 345.5 M 178.5 353.5 L 178.5 345.5 M 232.5 353.5 L 232.5 345.5 M 287.5 353.5 L 287.5 345.5 M 341.5 353.5 L 341.5 345.5 M 396.5 353.5 L 396.5 345.5 M 450.5 353.5 L 450.5 345.5" stroke-opacity="1" stroke-linejoin="bevel" stroke-miterlimit="10"/><path fill="none" stroke="rgb(0,0,0)" paint-order="fill" d="M 69.5 351.5 L 69.5 347.5 M 80.5 351.5 L 80.5 347.5 M 91.5 351.5 L 91.5 347.5 M 102.5 351.5 L 102.5 347.5 M 113.5 351.5 L 113.5 347.5 M 123.5 351.5 L 123.5 347.5 M 134.5 351.5 L 134.5 347.5 M 145.5 351.5 L 145.5 347.5 M 156.5 351.5 L 156.5 347.5 M 167.5 351.5 L 167.5 347.5 M 178.5 351.5 L 178.5 347.5 M 189.5 351.5 L 189.5 347.5 M 200.5 351.5 L 200.5 347.5 M 211.5 351.5 L 211.5 347.5 M 221.5 351.5 L 221.5 347.5 M 232.5 351.5 L 232.5 347.5 M 243.5 351.5 L 243.5 347.5 M 254.5 351.5 L 254.5 347.5 M 265.5 351.5 L 265.5 347.5 M 276.5 351.5 L 276.5 347.5 M 287.5 351.5 L 287.5 347.5 M 298.5 351.5 L 298.5 347.5 M 308.5 351.5 L 308.5 347.5 M 319.5 351.5 L 319.5 347.5 M 330.5 351.5 L 330.5 347.5 M 341.5 351.5 L 341.5 347.5 M 352.5 351.5 L 352.5 347.5 M 363.5 351.5 L 363.5 347.5 M 374.5 351.5 L 374.5 347.5 M 385.5 351.5 L 385.5 347.5 M 396.5 351.5 L 396.5 347.5 M 406.5 351.5 L 406.5 347.5 M 417.5 351.5 L 417.5 347.5 M 428.5 351.5 L 428.5 347.5 M 439.5 351.5 L 439.5 347.5 M 450.5 351.5 L 450.5 347.5 M 461.5 351.5 L 461.5 347.5" stroke-opacity="1" stroke-linejoin="bevel" stroke-miterlimit="10"/><text fill="rgb(68,68,68)" stroke="none" font-family="helvetica" font-size="12pt" font-style="normal" font-weight="normal" text-decoration="normal" x="64.55000019073486" y="369.4765625" text-anchor="start" dominant-baseline="alphabetic" transform="matrix(1, 0, 0, 1, 0.5, 0.5)" fill-opacity="1">0</text><text fill="none" stroke="rgb(0,0,0)" font-family="helvetica" font-size="12pt" font-style="normal" font-weight="normal" text-decoration="normal" x="64.55000019073486" y="369.4765625" text-anchor="start" dominant-baseline="alphabetic" transform="matrix(1, 0, 0, 1, 0.5, 0.5)" stroke-opacity="0" stroke-linejoin="bevel" stroke-miterlimit="10">0</text><text fill="rgb(68,68,68)" stroke="none" font-family="helvetica" font-size="12pt" font-style="normal" font-weight="normal" text-decoration="normal" x="118.97408771514893" y="369.4765625" text-anchor="start" dominant-baseline="alphabetic" transform="matrix(1, 0, 0, 1, 0.5, 0.5)" fill-opacity="1">2</text><text fill="none" stroke="rgb(0,0,0)" font-family="helvetica" font-size="12pt" font-style="normal" font-weight="normal" text-decoration="normal" x="118.97408771514893" y="369.4765625" text-anchor="start" dominant-baseline="alphabetic" transform="matrix(1, 0, 0, 1, 0.5, 0.5)" stroke-opacity="0" stroke-linejoin="bevel" stroke-miterlimit="10">2</text><text fill="rgb(68,68,68)" stroke="none" font-family="helvetica" font-size="12pt" font-style="normal" font-weight="normal" text-decoration="normal" x="173.398175239563" y="369.4765625" text-anchor="start" dominant-baseline="alphabetic" transform="matrix(1, 0, 0, 1, 0.5, 0.5)" fill-opacity="1">4</text><text fill="none" stroke="rgb(0,0,0)" font-family="helvetica" font-size="12pt" font-style="normal" font-weight="normal" text-decoration="normal" x="173.398175239563" y="369.4765625" text-anchor="start" dominant-baseline="alphabetic" transform="matrix(1, 0, 0, 1, 0.5, 0.5)" stroke-opacity="0" stroke-linejoin="bevel" stroke-miterlimit="10">4</text><text fill="rgb(68,68,68)" stroke="none" font-family="helvetica" font-size="12pt" font-style="normal" font-weight="normal" text-decoration="normal" x="227.82226276397705" y="369.4765625" text-anchor="start" dominant-baseline="alphabetic" transform="matrix(1, 0, 0, 1, 0.5, 0.5)" fill-opacity="1">6</text><text fill="none" stroke="rgb(0,0,0)" font-family="helvetica" font-size="12pt" font-style="normal" font-weight="normal" text-decoration="normal" x="227.82226276397705" y="369.4765625" text-anchor="start" dominant-baseline="alphabetic" transform="matrix(1, 0, 0, 1, 0.5, 0.5)" stroke-opacity="0" stroke-linejoin="bevel" stroke-miterlimit="10">6</text><text fill="rgb(68,68,68)" stroke="none" font-family="helvetica" font-size="12pt" font-style="normal" font-weight="normal" text-decoration="normal" x="282.2463502883911" y="369.4765625" text-anchor="start" dominant-baseline="alphabetic" transform="matrix(1, 0, 0, 1, 0.5, 0.5)" fill-opacity="1">8</text><text fill="none" stroke="rgb(0,0,0)" font-family="helvetica" font-size="12pt" font-style="normal" font-weight="normal" text-decoration="normal" x="282.2463502883911" y="369.4765625" text-anchor="start" dominant-baseline="alphabetic" transform="matrix(1, 0, 0, 1, 0.5, 0.5)" stroke-opacity="0" stroke-linejoin="bevel" stroke-miterlimit="10">8</text><text fill="rgb(68,68,68)" stroke="none" font-family="helvetica" font-size="12pt" font-style="normal" font-weight="normal" text-decoration="normal" x="332.2204532623291" y="369.4765625" text-anchor="start" dominant-baseline="alphabetic" transform="matrix(1, 0, 0, 1, 0.5, 0.5)" fill-opacity="1">10</text><text fill="none" stroke="rgb(0,0,0)" font-family="helvetica" font-size="12pt" font-style="normal" font-weight="normal" text-decoration="normal" x="332.2204532623291" y="369.4765625" text-anchor="start" dominant-baseline="alphabetic" transform="matrix(1, 0, 0, 1, 0.5, 0.5)" stroke-opacity="0" stroke-linejoin="bevel" stroke-miterlimit="10">10</text><text fill="rgb(68,68,68)" stroke="none" font-family="helvetica" font-size="12pt" font-style="normal" font-weight="normal" text-decoration="normal" x="386.6445255279541" y="369.4765625" text-anchor="start" dominant-baseline="alphabetic" transform="matrix(1, 0, 0, 1, 0.5, 0.5)" fill-opacity="1">12</text><text fill="none" stroke="rgb(0,0,0)" font-family="helvetica" font-size="12pt" font-style="normal" font-weight="normal" text-decoration="normal" x="386.6445255279541" y="369.4765625" text-anchor="start" dominant-baseline="alphabetic" transform="matrix(1, 0, 0, 1, 0.5, 0.5)" stroke-opacity="0" stroke-linejoin="bevel" stroke-miterlimit="10">12</text><text fill="rgb(68,68,68)" stroke="none" font-family="helvetica" font-size="12pt" font-style="normal" font-weight="normal" text-decoration="normal" x="441.0686283111572" y="369.4765625" text-anchor="start" dominant-baseline="alphabetic" transform="matrix(1, 0, 0, 1, 0.5, 0.5)" fill-opacity="1">14</text><text fill="none" stroke="rgb(0,0,0)" font-family="helvetica" font-size="12pt" font-style="normal" font-weight="normal" text-decoration="normal" x="441.0686283111572" y="369.4765625" text-anchor="start" dominant-baseline="alphabetic" transform="matrix(1, 0, 0, 1, 0.5, 0.5)" stroke-opacity="0" stroke-linejoin="bevel" stroke-miterlimit="10">14</text><text fill="rgb(68,68,68)" stroke="none" font-family="helvetica" font-size="14pt" font-style="normal" font-weight="normal" text-decoration="normal" x="231.80833435058594" y="392.4765625" text-anchor="start" dominant-baseline="alphabetic" transform="matrix(1, 0, 0, 1, 0.5, 0.5)" fill-opacity="1">Time (hr)</text><text fill="none" stroke="rgb(0,0,0)" font-family="helvetica" font-size="14pt" font-style="normal" font-weight="normal" text-decoration="normal" x="231.80833435058594" y="392.4765625" text-anchor="start" dominant-baseline="alphabetic" transform="matrix(1, 0, 0, 1, 0.5, 0.5)" stroke-opacity="0" stroke-linejoin="bevel" stroke-miterlimit="10">Time (hr)</text><path fill="none" stroke="rgb(0,0,0)" paint-order="fill" d="M 69.5 347.5 L 69.5 10.5" stroke-opacity="1" stroke-linejoin="bevel" stroke-miterlimit="10"/><path fill="none" stroke="rgb(0,0,0)" paint-order="fill" d="M 63.5 347.5 L 71.5 347.5 M 63.5 280.5 L 71.5 280.5 M 63.5 212.5 L 71.5 212.5 M 63.5 145.5 L 71.5 145.5 M 63.5 77.5 L 71.5 77.5 M 63.5 10.5 L 71.5 10.5" stroke-opacity="1" stroke-linejoin="bevel" stroke-miterlimit="10"/><path fill="none" stroke="rgb(0,0,0)" paint-order="fill" d="M 65.5 347.5 L 69.5 347.5 M 65.5 334.5 L 69.5 334.5 M 65.5 320.5 L 69.5 320.5 M 65.5 307.5 L 69.5 307.5 M 65.5 293.5 L 69.5 293.5 M 65.5 280.5 L 69.5 280.5 M 65.5 266.5 L 69.5 266.5 M 65.5 253.5 L 69.5 253.5 M 65.5 239.5 L 69.5 239.5 M 65.5 226.5 L 69.5 226.5 M 65.5 212.5 L 69.5 212.5 M 65.5 199.5 L 69.5 199.5 M 65.5 185.5 L 69.5 185.5 M 65.5 172.5 L 69.5 172.5 M 65.5 158.5 L 69.5 158.5 M 65.5 145.5 L 69.5 145.5 M 65.5 131.5 L 69.5 131.5 M 65.5 118.5 L 69.5 118.5 M 65.5 104.5 L 69.5 104.5 M 65.5 91.5 L 69.5 91.5 M 65.5 77.5 L 69.5 77.5 M 65.5 64.5 L 69.5 64.5 M 65.5 50.5 L 69.5 50.5 M 65.5 37.5 L 69.5 37.5 M 65.5 23.5 L 69.5 23.5 M 65.5 10.5 L 69.5 10.5" stroke-opacity="1" stroke-linejoin="bevel" stroke-miterlimit="10"/><text fill="rgb(68,68,68)" stroke="none" font-family="helvetica" font-size="12pt" font-style="normal" font-weight="normal" text-decoration="normal" x="49.10000038146973" y="352.73828125" text-anchor="start" dominant-baseline="alphabetic" transform="matrix(1, 0, 0, 1, 0.5, 0.5)" fill-opacity="1">0</text><text fill="none" stroke="rgb(0,0,0)" font-family="helvetica" font-size="12pt" font-style="normal" font-weight="normal" text-decoration="normal" x="49.10000038146973" y="352.73828125" text-anchor="start" dominant-baseline="alphabetic" transform="matrix(1, 0, 0, 1, 0.5, 0.5)" stroke-opacity="0" stroke-linejoin="bevel" stroke-miterlimit="10">0</text><text fill="rgb(68,68,68)" stroke="none" font-family="helvetica" font-size="12pt" font-style="normal" font-weight="normal" text-decoration="normal" x="40.20000076293945" y="285.3382873535156" text-anchor="start" dominant-baseline="alphabetic" transform="matrix(1, 0, 0, 1, 0.5, 0.5)" fill-opacity="1">20</text><text fill="none" stroke="rgb(0,0,0)" font-family="helvetica" font-size="12pt" font-style="normal" font-weight="normal" text-decoration="normal" x="40.20000076293945" y="285.3382873535156" text-anchor="start" dominant-baseline="alphabetic" transform="matrix(1, 0, 0, 1, 0.5, 0.5)" stroke-opacity="0" stroke-linejoin="bevel" stroke-miterlimit="10">20</text><text fill="rgb(68,68,68)" stroke="none" font-family="helvetica" font-size="12pt" font-style="normal" font-weight="normal" text-decoration="normal" x="40.20000076293945" y="217.9382781982422" text-anchor="start" dominant-baseline="alphabetic" transform="matrix(1, 0, 0, 1, 0.5, 0.5)" fill-opacity="1">40</text><text fill="none" stroke="rgb(0,0,0)" font-family="helvetica" font-size="12pt" font-style="normal" font-weight="normal" text-decoration="normal" x="40.20000076293945" y="217.9382781982422" text-anchor="start" dominant-baseline="alphabetic" transform="matrix(1, 0, 0, 1, 0.5, 0.5)" stroke-opacity="0" stroke-linejoin="bevel" stroke-miterlimit="10">40</text><text fill="rgb(68,68,68)" stroke="none" font-family="helvetica" font-size="12pt" font-style="normal" font-weight="normal" text-decoration="normal" x="40.20000076293945" y="150.5382843017578" text-anchor="start" dominant-baseline="alphabetic" transform="matrix(1, 0, 0, 1, 0.5, 0.5)" fill-opacity="1">60</text><text fill="none" stroke="rgb(0,0,0)" font-family="helvetica" font-size="12pt" font-style="normal" font-weight="normal" text-decoration="normal" x="40.20000076293945" y="150.5382843017578" text-anchor="start" dominant-baseline="alphabetic" transform="matrix(1, 0, 0, 1, 0.5, 0.5)" stroke-opacity="0" stroke-linejoin="bevel" stroke-miterlimit="10">60</text><text fill="rgb(68,68,68)" stroke="none" font-family="helvetica" font-size="12pt" font-style="normal" font-weight="normal" text-decoration="normal" x="40.20000076293945" y="83.1382827758789" text-anchor="start" dominant-baseline="alphabetic" transform="matrix(1, 0, 0, 1, 0.5, 0.5)" fill-opacity="1">80</text><text fill="none" stroke="rgb(0,0,0)" font-family="helvetica" font-size="12pt" font-style="normal" font-weight="normal" text-decoration="normal" x="40.20000076293945" y="83.1382827758789" text-anchor="start" dominant-baseline="alphabetic" transform="matrix(1, 0, 0, 1, 0.5, 0.5)" stroke-opacity="0" stroke-linejoin="bevel" stroke-miterlimit="10">80</text><text fill="rgb(68,68,68)" stroke="none" font-family="helvetica" font-size="12pt" font-style="normal" font-weight="normal" text-decoration="normal" x="31.299999237060547" y="15.73828125" text-anchor="start" dominant-baseline="alphabetic" transform="matrix(1, 0, 0, 1, 0.5, 0.5)" fill-opacity="1">100</text><text fill="none" stroke="rgb(0,0,0)" font-family="helvetica" font-size="12pt" font-style="normal" font-weight="normal" text-decoration="normal" x="31.299999237060547" y="15.73828125" text-anchor="start" dominant-baseline="alphabetic" transform="matrix(1, 0, 0, 1, 0.5, 0.5)" stroke-opacity="0" stroke-linejoin="bevel" stroke-miterlimit="10">100</text><text fill="rgb(68,68,68)" stroke="none" font-family="helvetica" font-size="14pt" font-style="normal" font-weight="normal" text-decoration="normal" x="-63.733333587646484" y="173.5" text-anchor="start" dominant-baseline="alphabetic" transform="matrix(6.123233995736766e-17, -1, 1, 6.123233995736766e-17, -154.70000076293945, 202.29999923706055)" fill-opacity="1">Radial Position (Mm)</text><text fill="none" stroke="rgb(0,0,0)" font-family="helvetica" font-size="14pt" font-style="normal" font-weight="normal" text-decoration="normal" x="-63.733333587646484" y="173.5" text-anchor="start" dominant-baseline="alphabetic" transform="matrix(6.123233995736766e-17, -1, 1, 6.123233995736766e-17, -154.70000076293945, 202.29999923706055)" stroke-opacity="0" stroke-linejoin="bevel" stroke-miterlimit="10">Radial Position (Mm)</text></svg>